<?xml version="1.0" encoding="utf-8"?>
<!-- Generator: Adobe Illustrator 27.4.0, SVG Export Plug-In . SVG Version: 6.00 Build 0)  -->
<svg version="1.1" id="Layer_1" xmlns="http://www.w3.org/2000/svg" xmlns:xlink="http://www.w3.org/1999/xlink" x="0px" y="0px"
	 viewBox="0 0 550 505" style="enable-background:new 0 0 550 505;" xml:space="preserve">
<style type="text/css">
	.st0{fill:url(#SVGID_1_);}
	.st1{fill:url(#SVGID_00000159450677371943297750000010770850074176447113_);}
	.st2{fill:url(#SVGID_00000045580423174297708000000005067576693922819007_);}
	.st3{fill:url(#SVGID_00000142157253410931429910000001422520901444500360_);}
	.st4{fill:url(#SVGID_00000077282250477876676740000006821424034462913964_);}
	.st5{fill:url(#SVGID_00000044170996948209116790000008371703641877430173_);}
	.st6{fill:url(#SVGID_00000090288460694579328150000002261909262421422225_);}
	.st7{fill:url(#SVGID_00000122694229826873760080000013993793255427390389_);}
	.st8{fill:url(#SVGID_00000113350960689206251020000015383296573177169802_);}
	.st9{fill:url(#SVGID_00000163753711640527444600000004987840310352892597_);}
	.st10{fill:url(#SVGID_00000061469851108821493300000005256993420824914823_);}
	.st11{fill:url(#SVGID_00000086650807577475921910000012824776086223464581_);}
	.st12{fill:url(#SVGID_00000099661119468186767050000009213953870167728059_);}
	.st13{fill:url(#SVGID_00000067235321559787305870000014340607270368090763_);}
	.st14{fill:url(#SVGID_00000178194468823099158630000002931490912260167556_);}
	.st15{fill:url(#SVGID_00000065075157171113923730000010262821446728404664_);}
	.st16{fill:url(#SVGID_00000144333703638159161020000008107007333834746259_);}
	.st17{fill:url(#SVGID_00000067957086279674440610000003357468961596305032_);}
	.st18{fill:url(#SVGID_00000106120412938790700830000015377445952827432329_);}
	.st19{fill:none;}
	.st20{fill:url(#SVGID_00000080921277106783924160000001053615447485584540_);}
	.st21{fill:#316FAD;}
</style>
<g id="_x32_GlO8v.tif_00000036226300020904815780000010336646112559745458_">
	<g>
		<linearGradient id="SVGID_1_" gradientUnits="userSpaceOnUse" x1="383.4458" y1="23.5213" x2="383.4458" y2="24.587">
			<stop  offset="0" style="stop-color:#00AAB3"/>
			<stop  offset="0.4635" style="stop-color:#1591B0"/>
			<stop  offset="1" style="stop-color:#316FAD"/>
		</linearGradient>
		<path class="st0" d="M364.8,23.52c-0.18,0.06-0.37,0.13-0.54,0.2c0.17-0.06,0.37-0.13,0.61-0.2H364.8z M400.23,23.74h-0.13
			c0.83,0.26,1.65,0.54,2.48,0.85l0.05-0.03C401.83,24.27,401.03,24.01,400.23,23.74z"/>
		
			<linearGradient id="SVGID_00000165200565875318140950000018091214080627819682_" gradientUnits="userSpaceOnUse" x1="331.0436" y1="21" x2="331.0436" y2="214.8583">
			<stop  offset="0" style="stop-color:#00AAB3"/>
			<stop  offset="0.4635" style="stop-color:#1591B0"/>
			<stop  offset="1" style="stop-color:#316FAD"/>
		</linearGradient>
		<path style="fill:url(#SVGID_00000165200565875318140950000018091214080627819682_);" d="M440.11,112.5
			c-0.11-1.36-0.42-2.72-0.81-4.03c-3-10.3-7.88-19.72-13.67-28.68c-1.52-2.35-1.98-4.11-0.27-6.54c1.34-1.91,2.22-4.19,3.05-6.4
			c4.05-10.78,1.85-20.44-5.53-29.02c-4.89-5.68-11.12-9.52-17.98-12.38c-0.75-0.32-1.52-0.61-2.28-0.88l-0.05,0.03
			c-0.83-0.3-1.65-0.59-2.48-0.85c-16.71-5.31-31.21-1.5-35.24-0.22c-0.24,0.07-0.44,0.15-0.61,0.2c-0.06,0.02-0.1,0.04-0.15,0.06
			c-0.06,0.02-0.12,0.04-0.17,0.06c-0.08,0.04-0.14,0.06-0.17,0.06c-0.01,0.01-0.02,0.01-0.02,0.01h-0.01
			c-6.45,2.38-12.08,6.09-16.62,11.46c-14.02,16.57-27.27,33.78-41.4,50.24c-9.52,11.08-19.1,22.07-29.85,32.01
			c-6.91,6.4-14.42,8.58-23.32,5.27c-7.13-2.64-12.77-7.17-16.69-13.69c-1.69-2.81-3.09-5.81-4.57-8.74
			c-0.51-1.03-0.88-1.31-1.72-0.25c-5.99,7.68-8.66,16.32-7.26,25.98c4.17,28.6,28.49,44.62,55.66,43.08
			c1.53-0.09,2.97-0.26,4.28,0.98c6.77,6.41,13.57,12.79,20.44,19.09c8.17,7.5,16.48,14.82,25.48,21.31c2.16,1.56,4.34,3.17,6.93,4
			c1.99,0.63,2.96-0.22,2.58-2.3c-0.32-1.82-1.07-3.5-1.92-5.14c-5.59-10.91-12.77-20.86-19.11-31.32
			c-2.89-4.76-6.05-9.41-7.84-14.75c-0.94-2.81,0.04-3.82,2.86-3.09c1.4,0.37,2.77,0.87,4.09,1.47c4.75,2.15,9.23,4.78,13.7,7.44
			c8.33,4.99,16.4,10.42,24.95,15.02c1.33,0.72,3.01,2.23,4.35,0.91c1.13-1.13-0.1-2.89-0.65-4.26c-2.79-6.96-6.36-13.56-9.58-20.32
			c-3.39-7.11-6.83-14.18-9.59-21.58c-1.07-2.88,0.7-4.04,2.23-5.56c1.53-1.53,2.73-0.05,3.83,0.63c6.45,4,12.26,8.87,18.26,13.47
			c5.75,4.43,11.31,9.15,17.78,12.54c1.5,0.79,3.22,2.09,4.9,0.76c1.62-1.28,0.63-3.15,0.25-4.72c-1.08-4.33-3.07-8.31-5.06-12.27
			c-4.09-8.12-8.38-16.15-12.48-24.27c-1.44-2.86-2.89-5.74-3.62-8.91c-0.17-0.73-0.34-1.59,0.31-2.16c0.7-0.62,1.45-0.12,2.14,0.18
			c2.18,0.97,4.17,2.27,6.04,3.72c8.74,6.7,17.41,13.48,26.17,20.14c3.1,2.36,6.27,4.66,9.82,6.31c1.13,0.52,2.43,1.44,3.63,0.37
			c1.16-1.03,0.55-2.46,0.25-3.68c-0.62-2.45-1.59-4.79-2.71-7.05c-4.68-9.38-9.41-18.72-14.06-28.1c-1.7-3.43-3.27-6.93-4.03-10.71
			c-0.25-1.25-0.55-2.72,0.63-3.65c1.17-0.91,2.49-0.3,3.69,0.24c2.73,1.23,5.16,2.96,7.57,4.73c8.61,6.38,16.46,13.66,24.86,20.29
			c2.52,1.98,4.97,4.1,7.93,5.44C439.23,115.35,440.28,114.65,440.11,112.5z M420.41,59.02c-0.1,1.39-0.7,1.77-1.94,1.05
			c-10.37-6.04-20.15-3.67-29.57,2.25c-8.64,5.42-14.97,13.17-20.96,21.27c-10.18,13.77-20.93,27.08-32.79,39.48
			c-9.49,9.92-19.53,19.15-31.16,26.55c-7.34,4.67-15.08,8.6-23.85,9.59c-19.9,2.24-40.1-6.73-46.79-28.07
			c-1-3.19-1.77-6.48-1.37-10.37c2.55,2.07,4.35,4.27,6.65,5.91c8.33,5.9,17.45,8.69,27.68,7.14c5.78-0.88,10.21-4.31,14.52-7.9
			c10.91-9.09,20.14-19.83,29.39-30.51c15-17.34,29.04-35.49,43.78-53.05c7.89-9.42,18.54-12.23,30.3-11.61
			c8.03,0.42,15.67,2.52,22.68,6.63c4.69,2.76,8.65,6.24,11.43,11C420.34,51.7,420.68,55.29,420.41,59.02z"/>
		
			<linearGradient id="SVGID_00000081619360171473975140000005939190165469258677_" gradientUnits="userSpaceOnUse" x1="280.0201" y1="98.158" x2="280.0201" y2="491">
			<stop  offset="0" style="stop-color:#00AAB3"/>
			<stop  offset="0.4635" style="stop-color:#1591B0"/>
			<stop  offset="1" style="stop-color:#316FAD"/>
		</linearGradient>
		<path style="fill:url(#SVGID_00000081619360171473975140000005939190165469258677_);" d="M508.25,125.98
			c-0.13,10.26-3.63,17.46-10.19,23.38c-7.38,6.65-14.56,13.52-21.84,20.29c-14.89,13.85-29.78,27.68-44.67,41.53
			c-6.94,6.45-13.87,12.92-20.81,19.38c-15.11,14.06-30.22,28.11-45.33,42.17c-4.69,4.36-9.08,9.04-14.68,12.39
			c-4.34,2.6-8.91,4.04-13.88,4.21c-18.23,0.63-36.01,3.89-53.37,9.35c-21.02,6.62-39.99,16.74-55.46,32.83
			c-13.88,14.44-27.56,29.06-40.87,44.02c-11.38,12.79-22.83,25.52-34.1,38.4c-12.33,14.09-24.51,28.31-36.72,42.5
			c-7.23,8.4-14.33,16.91-21.58,25.29c-8.37,9.68-21.26,12.05-31.2,5.88c-13.02-8.09-15.7-25.13-5.73-36.8
			c15.39-18.01,30.73-36.07,46.24-53.97c14.01-16.17,28.13-32.25,42.45-48.16c12.17-13.52,24.38-27,36.93-40.17
			c9.71-10.19,19.37-20.4,30.84-28.71c18.56-13.44,39.13-22.6,61.04-28.94c11.99-3.47,24.19-5.96,36.55-7.71
			c1.01-0.14,1.88-0.38,2.6-1.23c4.69-5.58,10.44-10.07,15.65-15.12c5.32-5.16,10.89-10.06,16.31-15.12
			c16.72-15.58,33.41-31.2,50.12-46.78c10.73-10.01,21.49-20,32.24-29.98c10.58-9.83,20.98-19.88,31.83-29.41
			c8.97-7.88,19.58-9.4,30.43-4.59C502.28,105.87,507.9,115.04,508.25,125.98z"/>
	</g>
</g>
</svg>
