<?xml version="1.0" encoding="utf-8"?>
<!-- Generator: Adobe Illustrator 27.4.0, SVG Export Plug-In . SVG Version: 6.00 Build 0)  -->
<svg version="1.1" id="Layer_1" xmlns="http://www.w3.org/2000/svg" xmlns:xlink="http://www.w3.org/1999/xlink" x="0px" y="0px"
	 viewBox="0 0 550 505" style="enable-background:new 0 0 550 505;" xml:space="preserve">
<style type="text/css">
	.st0{fill:url(#SVGID_1_);}
	.st1{fill:url(#SVGID_00000025416334193467003860000015293299714237451951_);}
	.st2{fill:url(#SVGID_00000112633744504310051900000014673250925488292791_);}
	.st3{fill:url(#SVGID_00000055666563541886234290000012801790029097875375_);}
	.st4{fill:url(#SVGID_00000018952714535243043060000010705212284089519256_);}
	.st5{fill:url(#SVGID_00000011737483471294428280000006475304872307973045_);}
	.st6{fill:url(#SVGID_00000119088320594473470190000004987333489233884560_);}
	.st7{fill:url(#SVGID_00000016037849931448299540000007591691999323502524_);}
	.st8{fill:url(#SVGID_00000036236044256153957290000014074055828716655525_);}
	.st9{fill:url(#SVGID_00000062897650037540435110000007692180567191658941_);}
	.st10{fill:url(#SVGID_00000072253687842241750170000017497334725968830129_);}
	.st11{fill:url(#SVGID_00000121273629935996787200000015775679030937149585_);}
	.st12{fill:url(#SVGID_00000120536435196638094200000017181692176978046654_);}
	.st13{fill:url(#SVGID_00000046313832583383238140000000123888934544447638_);}
	.st14{fill:url(#SVGID_00000162322454628184731610000013685114682589839008_);}
	.st15{fill:url(#SVGID_00000138565270965541698350000017562771006580699039_);}
	.st16{fill:url(#SVGID_00000031922765052673460840000011255187657705731503_);}
	.st17{fill:url(#SVGID_00000114772474952512887880000016077150152752834998_);}
	.st18{fill:url(#SVGID_00000152983646318168195970000010761364685393400213_);}
	.st19{fill:none;}
	.st20{fill:url(#SVGID_00000019672485968333107180000005675460896212685979_);}
	.st21{fill:#316FAD;}
</style>
<g id="_x31_b3gSh.tif">
	<g>
		<linearGradient id="SVGID_1_" gradientUnits="userSpaceOnUse" x1="182.442" y1="39" x2="182.442" y2="245.1592">
			<stop  offset="0" style="stop-color:#00AAB3"/>
			<stop  offset="0.4635" style="stop-color:#1591B0"/>
			<stop  offset="1" style="stop-color:#316FAD"/>
		</linearGradient>
		<path class="st0" d="M148.45,39c4.8,1.9,9.55,3.89,13.77,6.96c9.24,6.72,16.06,15.08,17.84,26.7c1,6.55-0.32,13-1.66,19.4
			c-0.54,2.59-1.09,5.2-1.84,7.73c-0.58,1.96-0.14,3.17,1.7,4.16c4.81,2.59,9.96,4.35,14.97,6.45c8.82,3.68,17.37,7.82,24.75,14
			c9.43,7.89,15.1,17.76,15.3,30.29c0.15,9.14-4.11,16.12-11.15,21.61c-1.12,0.87-2.28,1.69-3.43,2.53c0.38,0.76,1,0.5,1.47,0.43
			c13.82-2.21,27.75-3.54,41.64-5.28c2.22-0.28,2.05-1.72,2.03-3.25c-0.02-2.69-0.01-2.72-2.68-2.43c-8.1,0.88-16.2,1.79-24.3,2.69
			c-0.52,0.06-1.13,0.36-1.5-0.19c-0.32-0.47,0.17-0.88,0.35-1.3c0.67-1.63,1.63-3.21,1.96-4.91c1.09-5.6,5.33-7.67,10.05-8.85
			c5.2-1.3,9.62,0.85,13.39,4.32c5.53,5.1,8.6,11.7,10.56,18.79c4.55,16.46,4.2,32.79-2.08,48.8c-2,5.1-4.81,9.76-9.1,13.33
			c-6.74,5.61-13.83,5.57-20.48-0.11c-1.98-1.69-3.56-3.73-5.01-5.88c-0.79-1.17-0.77-1.74,0.84-1.92
			c6.89-0.75,13.76-1.56,20.64-2.37c1.89-0.22,3.77-0.54,5.66-0.71c1.3-0.12,1.79-0.76,1.71-2c-0.04-0.61-0.04-1.23,0-1.83
			c0.11-1.54-0.66-1.92-2.09-1.99c-2.83-0.13-5.52,0.67-8.28,0.99c-11.87,1.38-23.76,2.58-35.66,3.63
			c-22.16,1.95-44.37,2.15-66.59,1.94c-11.15-0.11-21.82-2.5-31.97-7.22c-5.74-2.67-11.34-5.54-16.41-9.41
			c-14.13-10.78-16.93-30.47-6.14-44.24c3.61-4.62,8.36-7.95,13.45-10.76c9.08-5.03,18.92-7.88,29.02-9.95
			c5.64-1.15,11.21-2.85,17.22-2.88c-1.1-0.54-2.19-1.1-3.3-1.62c-9.63-4.42-17.79-10.5-22.63-20.25
			c-4.25-8.53-6.28-17.38-3.22-26.77c1.09-3.36,2.89-6.44,4.56-9.56c0.72-1.34,0.56-2.2-0.97-2.85
			c-12.23-5.15-15.82-18.48-12.15-29.8c2.56-7.91,7.66-13.47,15.49-16.44C138.93,39,143.69,39,148.45,39z"/>
		
			<linearGradient id="SVGID_00000039834921673839911230000010637912903648146565_" gradientUnits="userSpaceOnUse" x1="301.7341" y1="67.0254" x2="301.7341" y2="456">
			<stop  offset="0" style="stop-color:#00AAB3"/>
			<stop  offset="0.4635" style="stop-color:#1591B0"/>
			<stop  offset="1" style="stop-color:#316FAD"/>
		</linearGradient>
		<path style="fill:url(#SVGID_00000039834921673839911230000010637912903648146565_);" d="M326.38,344.68
			c0.15,13.06-1.37,25.19-2.74,37.34c-1.1,9.72-2.44,19.4-3.07,29.17c-0.38,5.91-0.72,11.81,0.03,17.69
			c0.34,2.67,0.97,2.9,3.28,1.45c5.06-3.17,8.77-7.68,12.16-12.46c8.08-11.37,14.07-23.87,19.56-36.62
			c10.52-24.41,18.43-49.7,24.92-75.44c1.79-7.12,3.33-14.3,4.88-21.47c0.82-3.77,2.68-6.7,5.8-9.01
			c17.68-13.12,30.38-29.99,37.67-50.81c2.86-8.18,4.55-16.62,5.15-25.29c2.01-28.82-7.77-53.77-24.86-76.35
			c-4.57-6.04-9.47-11.75-16.09-15.7c-7.34-4.38-15.29-6.55-23.8-7c-17.58-0.93-33.84,4.03-49.73,10.8
			c-1.81,0.77-1.78,1.07,0.02,2.58c6.41,5.37,12.54,11.05,18.46,16.96c2.52,2.52,4.23,5.42,4.34,9.15
			c0.14,5.19-2.59,9.61-7.49,11.78c-4.44,1.96-9.59,0.99-13.17-2.58c-14.25-14.2-29.6-27.05-46.57-37.88
			c-11.4-7.28-23.34-13.43-36.49-16.93c-12.3-3.27-24.54-3.88-36.56,1.28c-3.65,1.57-6.99,3.65-10.03,6.18
			c-1.19,0.99-2.22,1.17-3.69,0.57c-5.64-2.3-5.63-2.24-4.31-8.15c1.24-5.58,2.21-11.2,2.24-16.93c0.01-1.01,0.51-1.45,1.27-1.86
			c9-4.85,18.62-7.51,28.83-8.01c17.42-0.86,33.64,3.82,49.29,10.93c9.92,4.51,19.35,9.93,28.37,16.05
			c1.31,0.89,2.27,0.99,3.67,0.24c9.6-5.18,19.58-9.46,29.98-12.77c14.11-4.48,28.52-7.11,43.35-6.21
			c17.61,1.06,33.51,6.8,46.06,19.56c22.07,22.44,36.29,49.02,40.65,80.45c3.28,23.7-0.33,46.44-10.12,68.23
			c-7.32,16.3-17.79,30.31-30.82,42.45c-2.08,1.94-4.31,3.74-6.53,5.53c-1.06,0.85-1.69,1.83-1.99,3.18
			c-4.61,20.93-10.34,41.56-17.14,61.88c-6.1,18.19-12.99,36.07-21.78,53.17c-5.51,10.73-11.63,21.09-19.66,30.16
			c-6.78,7.66-14.42,14.17-25.01,15.73c-11.16,1.65-22.32-3.52-26.36-15.33c-1.64-4.8-2.46-9.74-2.63-14.79
			c-0.41-11.99,0.91-23.87,2.3-35.75c1.35-11.46,2.89-22.9,3.5-34.45c0.47-8.91,0.8-17.79-0.92-26.6c-0.35-1.79-0.94-3.54-1.48-5.3
			c-3.43-11.17-16.5-10.35-21.92-5.06c-5.19,5.06-7.99,11.44-10.32,18.07c-4.39,12.48-6.89,25.44-9.44,38.37
			c-2.61,13.2-4.76,26.5-8.19,39.53c-2.25,8.57-4.86,17.01-9.5,24.65c-5.3,8.73-12.41,14.98-23.07,15.85
			c-7.74,0.63-14.63-1.61-20.47-6.84c-7.06-6.33-10.6-14.7-13.33-23.47c-3.67-11.8-5.38-23.98-6.7-36.22
			c-1.59-14.72-2.5-29.49-3.31-44.28c-0.56-10.17-1.18-20.34-2.03-30.48c-1-11.98-1.93-23.97-4.77-35.71
			c-0.97-4.02-2.67-7.6-5.2-10.94c-6.71-8.82-11.56-18.71-15.91-28.86c-0.46-1.08-0.84-1.95,1.05-1.78
			c7.66,0.68,15.34,0.57,23.02,0.47c1.65-0.02,2.59,0.53,3.33,2.03c2.76,5.55,6,10.8,9.77,15.74c5,6.55,7.11,14.31,8.79,22.18
			c2.25,10.52,3.25,21.2,4.14,31.9c1.2,14.62,1.88,29.27,2.88,43.9c1.22,17.82,2.52,35.64,5.64,53.26
			c1.12,6.37,2.42,12.69,4.94,18.69c0.77,1.84,1.77,3.53,3.29,4.85c1.73,1.51,3.17,1.46,4.84-0.12c2.13-2.02,3.34-4.62,4.41-7.27
			c3.72-9.18,5.76-18.83,7.77-28.48c3.3-15.9,5.75-31.98,9.83-47.72c3.17-12.2,6.91-24.2,13.64-35.02
			c5.26-8.46,11.89-15.46,21.64-18.63c18.7-6.07,40.87,1.14,48.56,23.86C325.7,325.54,326.61,335.42,326.38,344.68z"/>
	</g>
</g>
</svg>
