<?xml version="1.0" encoding="utf-8"?>
<!-- Generator: Adobe Illustrator 27.4.0, SVG Export Plug-In . SVG Version: 6.00 Build 0)  -->
<svg version="1.1" id="Layer_1" xmlns="http://www.w3.org/2000/svg" xmlns:xlink="http://www.w3.org/1999/xlink" x="0px" y="0px"
	 viewBox="0 0 550 505" style="enable-background:new 0 0 550 505;" xml:space="preserve">
<style type="text/css">
	.st0{fill:url(#SVGID_1_);}
	.st1{fill:url(#SVGID_00000100343322175958054510000000613697694664027308_);}
	.st2{fill:url(#SVGID_00000158719686205819413290000014710018850167467423_);}
	.st3{fill:url(#SVGID_00000093140248040560427360000003966259915732325300_);}
	.st4{fill:url(#SVGID_00000173867233882220041750000005774944990839253137_);}
	.st5{fill:url(#SVGID_00000137131322833119750990000013473045050086964103_);}
	.st6{fill:url(#SVGID_00000183251052005908710060000007474987214038222736_);}
	.st7{fill:url(#SVGID_00000125563725460953275530000005265161620701725826_);}
	.st8{fill:url(#SVGID_00000111883288490657371410000009113738689806667143_);}
	.st9{fill:url(#SVGID_00000062175732294327468300000013164937543201654171_);}
	.st10{fill:url(#SVGID_00000096757634830223885440000004722380864646263460_);}
	.st11{fill:url(#SVGID_00000045578481033141573620000012923865055480131213_);}
	.st12{fill:url(#SVGID_00000046322773772764250430000014847516318065835657_);}
	.st13{fill:url(#SVGID_00000013897708899603450900000012861880564366232225_);}
	.st14{fill:url(#SVGID_00000033334417589164313550000007904673513623634331_);}
	.st15{fill:url(#SVGID_00000113321538669059253660000005870470681030672776_);}
	.st16{fill:url(#SVGID_00000103970357920417187150000009588103760922042501_);}
	.st17{fill:url(#SVGID_00000045598973460869565510000010403416069892392836_);}
	.st18{fill:url(#SVGID_00000102517038201742420340000007919353642125023643_);}
	.st19{fill:none;}
	.st20{fill:url(#SVGID_00000109010176422313157590000016756025426228472222_);}
	.st21{fill:#316FAD;}
</style>
<g id="_x30_WpnwL.tif">
	<g>
		<linearGradient id="SVGID_1_" gradientUnits="userSpaceOnUse" x1="331.9191" y1="39" x2="331.9191" y2="254.6077">
			<stop  offset="0" style="stop-color:#00AAB3"/>
			<stop  offset="0.4635" style="stop-color:#1591B0"/>
			<stop  offset="1" style="stop-color:#316FAD"/>
		</linearGradient>
		<path class="st0" d="M349.17,39c3.24,2.32,4.41,5.49,4.4,9.43c-0.05,46.84-0.03,93.68-0.03,140.52c0,3.7,0,3.7,3.72,3.71
			c3.49,0,6.98-0.05,10.47,0.02c1.66,0.03,2.42-0.55,2.34-2.28c-0.08-1.74-0.04-3.49,0-5.24c0.05-2.3,0.68-2.96,3.02-3.02
			c2.25-0.06,4.51-0.01,6.76-0.01c1.96,0,2.97,0.93,2.96,2.93c-0.01,1.82,0.05,3.64,0,5.45c-0.04,1.44,0.48,2.09,2,2.16
			c4.47,0.21,4.54,0.19,4.55-4.23c0-6.32,0-6.32,6.25-6.32c1.31,0,2.62,0.01,3.93,0.01c1.99,0,2.92,1.02,2.91,2.98
			c-0.01,1.89,0.03,3.78,0.01,5.67c-0.02,1.28,0.56,1.87,1.84,1.85c1.82-0.02,3.64-0.02,5.45,0c1.29,0.01,1.83-0.62,1.82-1.88
			c-0.02-1.89,0-3.78,0.02-5.67c0.02-1.96,1.04-2.95,2.99-2.96c2.33-0.01,4.65,0.01,6.98-0.01c2.12-0.02,3.03,1.14,3.09,3.12
			c0.05,1.82,0.06,3.64,0.03,5.45c-0.02,1.39,0.61,2.01,1.98,1.95c0.36-0.02,0.73,0,1.09,0.01c3.45,0.01,3.48,0.01,3.45-3.52
			c-0.06-7.28-0.29-7.07,7.03-7.02c6.08,0.04,6.08,0.01,6.08,6.06c0,4.56,0.98,5.31,5.57,4.46c1.14-0.21,1.37-0.89,1.37-1.85
			c0-1.89,0.03-3.78,0.01-5.67c-0.02-1.98,0.94-2.97,2.92-2.97c2.4,0,4.8-0.02,7.2,0.02c1.75,0.03,2.67,0.93,2.64,2.74
			c-0.03,1.89,0.07,3.79-0.02,5.67c-0.08,1.81,0.69,2.44,2.45,2.42c5.02-0.06,10.04-0.03,15.05-0.01c2.71,0.01,3.36,0.62,3.36,3.35
			c0.03,10.91,0.03,21.82,0,32.73c-0.01,2.69-0.82,3.49-3.51,3.64c-0.87,0.05-1.74,0.03-2.62,0.03c-40.51,0-81.02,0-121.53,0
			c-3.68,0-3.68,0-3.68,3.74c0,2.69,0.01,5.38,0,8.07c-0.02,6.11-3.35,10.04-8.51,10.06c-5.16,0.01-8.54-3.92-8.54-9.97
			c0-61.53,0-123.06,0-184.59c0-0.73-0.07-1.46,0.01-2.18c0.24-2.09-0.62-2.76-2.72-2.76c-26.69,0.05-53.38,0.05-80.08,0
			c-1.84,0-2.92,0.6-3.79,2.23c-4.39,8.21-8.83,16.38-13.35,24.52c-0.79,1.42-0.42,2.43,0.36,3.58c6.38,9.44,7.26,19.87,5.4,30.75
			c-0.53,3.09-1.96,3.68-4.54,2.02c-18.58-11.98-37.15-23.97-55.72-35.96c-0.55-0.35-1.11-0.7-1.63-1.09c-1.94-1.47-1.95-3,0.1-4.31
			c3.46-2.21,7.24-3.72,11.16-4.86c9.56-2.79,19.08-2.88,28.45,0.81c1.62,0.64,2.14,0,2.82-1.25c4.93-9.15,9.92-18.27,14.88-27.41
			c1.05-1.93,2.27-3.71,4-5.1C277.6,39,313.38,39,349.17,39z"/>
		
			<linearGradient id="SVGID_00000183217835377920588460000017202002723985376899_" gradientUnits="userSpaceOnUse" x1="267.9596" y1="180.787" x2="267.9596" y2="485.0474">
			<stop  offset="0" style="stop-color:#00AAB3"/>
			<stop  offset="0.4635" style="stop-color:#1591B0"/>
			<stop  offset="1" style="stop-color:#316FAD"/>
		</linearGradient>
		<path style="fill:url(#SVGID_00000183217835377920588460000017202002723985376899_);" d="M292.04,485.05c-24.36,0-48.73,0-73.09,0
			c-3.96,0-4.23-0.27-4.23-4.19c0-8.07-0.01-16.15,0-24.22c0-3.04,0.49-3.52,3.58-3.53c9.67-0.01,19.35-0.05,29.02,0.03
			c2.06,0.02,2.78-0.59,2.77-2.72c-0.07-19.13-0.06-38.26,0-57.38c0.01-2.05-0.59-2.82-2.72-2.79c-3.92,0.04-7.84,0.24-11.76-0.28
			c-5.47-0.72-10.18-2.97-14.13-6.73c-5.59-5.31-11.07-10.72-16.58-16.12c-9.2-9-18.37-18.03-27.57-27.03
			c-11.96-11.69-23.94-23.36-35.9-35.04c-12.18-11.88-24.35-23.77-36.53-35.65c-11.97-11.68-23.91-23.39-35.92-35.02
			c-4.44-4.3-9.27-8.24-13.03-13.15c-8.2-10.69-6.51-25.29,3.75-34.38c9.55-8.45,24.58-8.02,34,1c4.25,4.07,8.48,8.17,12.69,12.29
			c10.9,10.69,21.77,21.42,32.69,32.1c12.11,11.85,24.24,23.67,36.37,35.5c11.92,11.63,23.84,23.26,35.75,34.88
			c12.13,11.83,24.27,23.65,36.35,35.53c1.3,1.28,2.68,1.5,4.33,1.5c30.69-0.02,61.38,0.01,92.08-0.05
			c3.62-0.01,7.07,0.58,10.48,1.73c37.43,12.59,74.86,25.16,112.29,37.74c11.06,3.72,17.59,11.38,18.42,22.99
			c0.68,9.53-3.45,17.31-11.49,22.61c-7.07,4.66-14.75,5.24-22.77,2.54c-35.35-11.92-70.74-23.73-106.07-35.72
			c-5.17-1.76-10.36-0.92-15.55-1.14c-0.85-0.04-1.35,0.46-1.38,1.34c-0.02,0.51-0.04,1.02-0.04,1.53c0,18.98,0,37.96,0,56.95
			c0,2.92,0.02,2.94,2.9,2.94c11.56,0.01,23.13,0,34.69,0c3.73,0,4.25,0.53,4.25,4.33c0.01,7.93,0.01,15.86,0,23.78
			c-0.01,3.15-0.69,3.82-3.88,3.83C341.2,485.05,316.62,485.05,292.04,485.05z"/>
		
			<linearGradient id="SVGID_00000117669341380375904130000009146131870513732283_" gradientUnits="userSpaceOnUse" x1="329.2483" y1="209.0712" x2="329.2483" y2="360.4071">
			<stop  offset="0" style="stop-color:#00AAB3"/>
			<stop  offset="0.4635" style="stop-color:#1591B0"/>
			<stop  offset="1" style="stop-color:#316FAD"/>
		</linearGradient>
		<path style="fill:url(#SVGID_00000117669341380375904130000009146131870513732283_);" d="M482.93,335.19
			c0.15,12.24-9.27,22.68-20.61,24.77c-4.77,0.88-9.39,0.47-13.91-1.25c-28.53-10.89-57.06-21.77-85.58-32.67
			c-1.6-0.61-3.22-0.8-4.91-0.8c-28.58,0.01-57.16-0.08-85.73,0.06c-9.4,0.04-17.16-2.97-23.84-9.73
			c-11.04-11.16-22.45-21.96-33.74-32.87c-10.24-9.9-20.55-19.73-30.8-29.63c-4.49-4.33-7.22-9.54-8.04-15.81
			c-1.57-12.05,6.64-24.35,18.54-27.3c9.33-2.31,17.58-0.13,24.53,6.56c9.95,9.58,19.83,19.23,29.77,28.82
			c9.47,9.13,19.01,18.19,28.45,27.35c1.43,1.39,2.87,1.92,4.83,1.92c27.12-0.05,54.25,0.11,81.37-0.13
			c6.69-0.06,12.51,2.31,18.46,4.57c27.93,10.62,55.83,21.31,83.75,31.96c9.12,3.47,14.95,9.77,17,19.41
			c0.14,0.64,0.21,1.29,0.27,1.94C482.82,333.3,482.87,334.24,482.93,335.19z"/>
		
			<linearGradient id="SVGID_00000025438455822186256240000016031551142986364037_" gradientUnits="userSpaceOnUse" x1="159.4106" y1="127.6145" x2="159.4106" y2="214.8796">
			<stop  offset="0" style="stop-color:#00AAB3"/>
			<stop  offset="0.4635" style="stop-color:#1591B0"/>
			<stop  offset="1" style="stop-color:#316FAD"/>
		</linearGradient>
		<path style="fill:url(#SVGID_00000025438455822186256240000016031551142986364037_);" d="M203.01,171.49
			c-0.06,24-19.66,43.49-43.74,43.39c-23.43-0.1-43.53-18.86-43.46-43.73c0.07-24.81,20.01-43.54,43.89-43.54
			C183.64,127.61,203.07,147.41,203.01,171.49z"/>
	</g>
</g>
</svg>
