<?xml version="1.0" encoding="utf-8"?>
<!-- Generator: Adobe Illustrator 27.4.0, SVG Export Plug-In . SVG Version: 6.00 Build 0)  -->
<svg version="1.1" id="Layer_1" xmlns="http://www.w3.org/2000/svg" xmlns:xlink="http://www.w3.org/1999/xlink" x="0px" y="0px"
	 viewBox="0 0 550 505" style="enable-background:new 0 0 550 505;" xml:space="preserve">
<style type="text/css">
	.st0{fill:url(#SVGID_1_);}
	.st1{fill:url(#SVGID_00000024702696493678527610000015547740076411766664_);}
	.st2{fill:url(#SVGID_00000029027571991856855080000005031963765119248570_);}
	.st3{fill:url(#SVGID_00000128476140646729280530000010768986689672936834_);}
	.st4{fill:url(#SVGID_00000172419523808085681510000004320060454613630891_);}
	.st5{fill:url(#SVGID_00000160170018261937434830000005480404482059448982_);}
	.st6{fill:url(#SVGID_00000028309673596213735590000012576710447600685497_);}
	.st7{fill:url(#SVGID_00000108275232635439661820000011196009778187978684_);}
	.st8{fill:url(#SVGID_00000176753202882769614510000018210575282708998579_);}
	.st9{fill:url(#SVGID_00000016065588949350003580000003781330905763965831_);}
	.st10{fill:url(#SVGID_00000111890007342262378100000018384191322197647256_);}
	.st11{fill:url(#SVGID_00000008833255414258641510000018343218876691185793_);}
	.st12{fill:url(#SVGID_00000029732287845862524260000013431151630702230184_);}
	.st13{fill:url(#SVGID_00000092450210171309637230000002044181977928853382_);}
	.st14{fill:url(#SVGID_00000092425287954730150810000006618449415413214601_);}
	.st15{fill:url(#SVGID_00000103982824298269339610000001120563226776832954_);}
	.st16{fill:url(#SVGID_00000072987345248597902760000004200181745717820085_);}
	.st17{fill:url(#SVGID_00000134964958769005088350000013029122440436761006_);}
	.st18{fill:url(#SVGID_00000003823324470461295970000004499587732899854494_);}
	.st19{fill:none;}
	.st20{fill:url(#SVGID_00000116199023850949905830000002570369605531274632_);}
	.st21{fill:#7C7C7C;}
	.st22{fill:#02A7B3;}
	.st23{fill:url(#SVGID_00000158010982775227580280000006441305599287504319_);}
	.st24{fill:url(#SVGID_00000076588244628097040950000014536124475876671105_);}
	.st25{fill:url(#SVGID_00000026133936976448794090000006943960787754189500_);}
	.st26{fill:url(#SVGID_00000028320376082892971270000017824038221914859931_);}
	.st27{fill:url(#SVGID_00000147208985510943249360000014931780134861746612_);}
	.st28{fill:url(#SVGID_00000070825400122131074880000014556908057576832930_);}
	.st29{fill:url(#SVGID_00000000913819151404567020000008033129364553747097_);}
	.st30{fill:url(#SVGID_00000003091139114491779750000001317109416436148873_);}
	.st31{fill:url(#SVGID_00000160885406139331214700000018228360741804479122_);}
	.st32{fill:url(#SVGID_00000101812259081476110460000012260911317010652304_);}
	.st33{fill:url(#SVGID_00000134947764546144264640000010978195460970465705_);}
	.st34{fill:url(#SVGID_00000119796950571611402860000016790210990538132391_);}
	.st35{fill:url(#SVGID_00000063635575955831087650000009647547082189974935_);}
	.st36{fill:url(#SVGID_00000132046984363773264190000009820286182959548351_);}
	.st37{fill:url(#SVGID_00000055705665143087670060000005291283284211063723_);}
</style>
<g id="k0rj8Z.tif">
	<g>
		<linearGradient id="SVGID_1_" gradientUnits="userSpaceOnUse" x1="23.4422" y1="252.5" x2="526.5578" y2="252.5">
			<stop  offset="0" style="stop-color:#00AAB3"/>
			<stop  offset="0.4635" style="stop-color:#1591B0"/>
			<stop  offset="1" style="stop-color:#316FAD"/>
		</linearGradient>
		<path class="st0" d="M497.57,253.28c1.16-21.1-7.23-38.39-19.78-54.12c-12.88-16.15-29.91-25.56-50.04-28.59
			c-27.87-4.19-52.25,3.7-72.55,23.58c-6.99,6.84-14.24,13.43-21.21,20.29c-11.65,11.46-23.15,23.07-34.78,34.55
			c-3.23,3.19-6.83,6-9.98,9.25c-13.35,13.75-27.67,26.49-41.2,40.06c-12.76,12.79-25.54,25.56-38.59,38.04
			c-8.23,7.87-18.06,13.45-28.46,18.08c-7.77,3.46-15.64,6.61-24.07,7.93c-22.6,3.54-44.6,1.6-65.85-7.35
			c-20.34-8.57-36.09-22.57-48.59-40.48c-10.79-15.47-17.49-32.64-18.73-51.42c-1.99-30.03,5.86-57.26,25.03-80.97
			c16.82-20.81,38.44-33.83,64.46-38.83c37.58-7.23,70.61,2.93,99.19,28.19c4.54,4.02,8.91,8.2,13.06,12.6
			c2.04,2.17,3.87,2.47,6.66,1.5c14.8-5.1,28.58-3.11,41.11,6.49c3.51,2.68,3.54,3.16,0.47,6.23
			c-17.85,17.83-35.7,35.65-53.55,53.47c-2.48,2.47-3.21,2.52-5.12-0.33c-4.32-6.42-9.18-12.57-10.16-20.68
			c-0.84-6.87,0.02-13.47,2.52-19.88c0.67-1.71,1.48-3.47-0.3-5c-8.42-7.2-15.46-15.91-24.89-22.01
			c-24.1-15.6-49.72-18.71-76.61-8.93c-19.6,7.13-33.8,20.79-43.92,38.86c-6.64,11.86-9.94,24.56-10.17,38.17
			c-0.32,19.25,6.78,35.7,17.89,50.97c9.22,12.68,21.32,21.32,35.56,27.19c12.98,5.35,26.61,6.46,40.43,4.83
			c20.16-2.39,37.11-11.36,51.58-25.49c32.7-31.93,65.11-64.15,97.62-96.28c15.13-14.95,29.83-30.41,45.96-44.31
			c17.17-14.81,36.9-24.15,59.77-26.85c16.76-1.98,33.18-0.95,48.96,4.54c36.06,12.54,60.53,36.87,71.97,73.64
			c8.9,28.62,6.65,56.54-7.02,83.12c-11.75,22.84-29.67,39.75-52.9,50.91c-17.96,8.62-36.94,10.69-56.61,9.32
			c-18.57-1.29-35.42-7.35-51.21-16.85c-1.54-0.93-2.92-0.93-4.56-0.23c-16.33,6.96-31.3,3.84-45.36-6.15
			c-2.1-1.49-2.27-2.79-0.33-4.55c2.09-1.9,3.91-4.09,6.03-5.95c2.15-1.89,1.8-3.24-0.09-5.18c-7.46-7.65-14.93-15.29-22.71-22.61
			c-2.88-2.71-2.82-2.9-0.02-5.76c1.62-1.66,3.36-3.22,4.83-5.01c1.72-2.1,3.14-1.97,4.96-0.12c7.8,7.9,15.71,15.68,23.47,23.62
			c1.56,1.59,2.48,1.78,4.12,0.12c4.53-4.6,9.18-9.08,13.91-13.47c1.81-1.68,1.58-2.8-0.07-4.41c-7.84-7.71-15.51-15.6-23.41-23.25
			c-2.1-2.04-1.9-3.42-0.02-5.21c1.83-1.74,3.65-3.49,5.31-5.38c1.64-1.87,2.93-1.52,4.51,0.07c7.51,7.62,15.1,15.15,22.61,22.77
			c2.88,2.92,2.82,2.98,5.82-0.03c1.85-1.86,3.74-3.68,5.58-5.55c1.53-1.54,2.96-1.6,4.3,0.2c8.71,11.76,13.03,24.49,8.68,39.15
			c-1.06,3.56-0.74,4.24,2.68,5.84c9.08,4.24,18.35,7.97,28.38,9.21c17.97,2.22,35.08-0.24,51.34-8.76
			c16.49-8.64,28.24-21.75,36.49-37.98C495.47,277.17,498.44,265.39,497.57,253.28z"/>
	</g>
</g>
</svg>
