<?xml version="1.0" encoding="utf-8"?>
<!-- Generator: Adobe Illustrator 27.4.0, SVG Export Plug-In . SVG Version: 6.00 Build 0)  -->
<svg version="1.1" id="Layer_1" xmlns="http://www.w3.org/2000/svg" xmlns:xlink="http://www.w3.org/1999/xlink" x="0px" y="0px"
	 viewBox="0 0 550 505" style="enable-background:new 0 0 550 505;" xml:space="preserve">
<style type="text/css">
	.st0{fill:url(#SVGID_1_);}
	.st1{fill:url(#SVGID_00000063622438489305632000000012473638428704412554_);}
	.st2{fill:url(#SVGID_00000013168218229031503350000016916860358790092942_);}
	.st3{fill:url(#SVGID_00000101807619830723490580000015759636123581802401_);}
	.st4{fill:url(#SVGID_00000030455191592720753020000004436957407448217993_);}
	.st5{fill:url(#SVGID_00000139261009024584195830000006336801385172593288_);}
	.st6{fill:url(#SVGID_00000049922032239897803060000011261387234864516793_);}
	.st7{fill:url(#SVGID_00000010304572090917280230000016071998296495941819_);}
	.st8{fill:url(#SVGID_00000150807911532750564550000009013644621214667931_);}
	.st9{fill:url(#SVGID_00000100368500313368670480000013101026527407952026_);}
	.st10{fill:url(#SVGID_00000006679462378418553330000000663763072465644176_);}
	.st11{fill:url(#SVGID_00000106826662039157706050000007027251338688909731_);}
	.st12{fill:url(#SVGID_00000137817193392716947170000016212975757638696334_);}
	.st13{fill:url(#SVGID_00000044860783762934754830000005275190105975762328_);}
	.st14{fill:url(#SVGID_00000018206948342888521680000006661343774897295534_);}
	.st15{fill:url(#SVGID_00000104690054175664346850000011622556967597406608_);}
	.st16{fill:url(#SVGID_00000124872708608163045960000000130390753533644982_);}
	.st17{fill:url(#SVGID_00000021100100259176119540000000523042062547300773_);}
	.st18{fill:url(#SVGID_00000152984298502307553620000002905768639429521828_);}
	.st19{fill:none;}
	.st20{fill:url(#SVGID_00000055686748085231739640000013717989561321557921_);}
	.st21{fill:#7C7C7C;}
	.st22{fill:#02A7B3;}
	.st23{fill:url(#SVGID_00000016781026262417388140000007010912964405699219_);}
	.st24{fill:url(#SVGID_00000090260392930905313400000015371449679331506843_);}
	.st25{fill:url(#SVGID_00000011030258413554754750000005155542450388092291_);}
	.st26{fill:url(#SVGID_00000127003034668227253380000015052904745459059864_);}
	.st27{fill:url(#SVGID_00000047776272273422861470000000542797330966029442_);}
	.st28{fill:url(#SVGID_00000079487736504826204360000009161763260459398553_);}
	.st29{fill:url(#SVGID_00000103957401296185781950000007845697080774468993_);}
	.st30{fill:url(#SVGID_00000098933180187249910230000016926537592573599370_);}
	.st31{fill:url(#SVGID_00000109743907687951775650000008374235179521412752_);}
	.st32{fill:url(#SVGID_00000149342986780123197270000000321271074636609664_);}
	.st33{fill:url(#SVGID_00000134234118747747838290000016737240973530273715_);}
	.st34{fill:url(#SVGID_00000040539208160715661240000007807846970864026032_);}
	.st35{fill:url(#SVGID_00000106140477624073084950000018084701037473484716_);}
	.st36{fill:url(#SVGID_00000126286438780820626880000012521405253754127495_);}
	.st37{fill:url(#SVGID_00000122702529519378079760000002892870265273187221_);}
</style>
<g>
	<g id="_x33_rbDNX.tif">
		<g>
			<linearGradient id="SVGID_1_" gradientUnits="userSpaceOnUse" x1="296.7707" y1="22.9039" x2="299.3283" y2="22.9039">
				<stop  offset="0" style="stop-color:#00AAB3"/>
				<stop  offset="0.4635" style="stop-color:#1591B0"/>
				<stop  offset="1" style="stop-color:#316FAD"/>
			</linearGradient>
			<path class="st0" d="M296.77,22.15c0.78,0.45,1.56,0.95,2.34,1.45l0.22,0.06V23.6C298.49,23.15,297.6,22.65,296.77,22.15z"/>
			
				<linearGradient id="SVGID_00000183937500870284718330000012983656044230885008_" gradientUnits="userSpaceOnUse" x1="311.4069" y1="131.5511" x2="360.934" y2="131.5511">
				<stop  offset="0" style="stop-color:#00AAB3"/>
				<stop  offset="0.4635" style="stop-color:#1591B0"/>
				<stop  offset="1" style="stop-color:#316FAD"/>
			</linearGradient>
			<path style="fill:url(#SVGID_00000183937500870284718330000012983656044230885008_);" d="M336.34,107.23
				c12.62-1.03,24.58,11.53,24.6,24.9c0.02,12.03-12.37,24.06-24.54,23.8c-15.33-0.32-25.07-12.31-24.99-24.69
				C311.5,118.08,322.87,106.21,336.34,107.23z"/>
			
				<linearGradient id="SVGID_00000168101172865335324840000017213627351370659470_" gradientUnits="userSpaceOnUse" x1="116.0202" y1="199.6749" x2="154.0095" y2="199.6749">
				<stop  offset="0" style="stop-color:#00AAB3"/>
				<stop  offset="0.4635" style="stop-color:#1591B0"/>
				<stop  offset="1" style="stop-color:#316FAD"/>
			</linearGradient>
			<path style="fill:url(#SVGID_00000168101172865335324840000017213627351370659470_);" d="M134.73,218.42
				c-3.66-0.28-6.04-2.36-7.49-5.47c-1.08-2.32-2.59-4-4.89-5.13c-1.33-0.65-2.57-1.6-3.64-2.63c-3.74-3.61-3.63-8.74,0.66-11.63
				c3.62-2.44,6.53-5.12,8.83-8.96c3.25-5.41,11.43-4.65,14.2,1.04c1.49,3.06,3.6,5.18,6.6,6.8c6.5,3.5,6.71,10.48,0.35,14.28
				c-3.18,1.9-5.82,3.84-7.18,7.5C140.97,217.46,137.72,217.93,134.73,218.42z"/>
			
				<linearGradient id="SVGID_00000084514230248360223990000013877085855842234787_" gradientUnits="userSpaceOnUse" x1="220.837" y1="115.8123" x2="258.9532" y2="115.8123">
				<stop  offset="0" style="stop-color:#00AAB3"/>
				<stop  offset="0.4635" style="stop-color:#1591B0"/>
				<stop  offset="1" style="stop-color:#316FAD"/>
			</linearGradient>
			<path style="fill:url(#SVGID_00000084514230248360223990000013877085855842234787_);" d="M239.7,134.5
				c-2.72-0.22-5.29-1.18-6.56-3.75c-1.88-3.81-4.88-6.22-8.33-8.48c-4.5-2.94-5.24-8.29-1.89-11.57c1.06-1.04,2.36-1.9,3.67-2.6
				c2.44-1.3,4.25-3.09,5.53-5.55c4.09-7.86,12.58-6.63,15.63,0.07c1.09,2.39,2.89,4.01,5.19,5.37c7.88,4.66,8.04,10.43,0.43,15.37
				c-2.71,1.76-4.83,3.78-6.21,6.76C245.76,133.13,243.04,134.36,239.7,134.5z"/>
			
				<linearGradient id="SVGID_00000128449066681206747990000004857072207088806041_" gradientUnits="userSpaceOnUse" x1="409.6043" y1="211.4842" x2="447.7663" y2="211.4842">
				<stop  offset="0" style="stop-color:#00AAB3"/>
				<stop  offset="0.4635" style="stop-color:#1591B0"/>
				<stop  offset="1" style="stop-color:#316FAD"/>
			</linearGradient>
			<path style="fill:url(#SVGID_00000128449066681206747990000004857072207088806041_);" d="M428.59,192.76
				c3.33,0.21,6.12,1.47,7.49,4.69c1.24,2.9,3.15,4.85,5.95,6.41c7.73,4.31,7.61,11.04-0.17,15.31c-2.46,1.35-4.2,3.11-5.38,5.63
				c-1.53,3.28-4.21,5.48-7.85,5.4c-3.58-0.08-6.33-2.17-7.81-5.51c-1.08-2.45-2.59-4.34-5.14-5.32c-0.63-0.25-1.18-0.72-1.74-1.13
				c-5.82-4.27-5.86-9.9,0.27-13.69c3.38-2.09,6.03-4.51,7.7-8.11C423.2,193.67,425.8,193.02,428.59,192.76z"/>
			
				<linearGradient id="SVGID_00000121254081393920395830000001114718517018377865_" gradientUnits="userSpaceOnUse" x1="281.2006" y1="261.2952" x2="330.2838" y2="261.2952">
				<stop  offset="0" style="stop-color:#00AAB3"/>
				<stop  offset="0.4635" style="stop-color:#1591B0"/>
				<stop  offset="1" style="stop-color:#316FAD"/>
			</linearGradient>
			<path style="fill:url(#SVGID_00000121254081393920395830000001114718517018377865_);" d="M322.48,285.35
				c-3.32-0.02-5.52-1.58-7.42-3.46c-10.03-9.94-19.99-19.95-29.94-29.96c-0.81-0.81-1.45-1.8-2.1-2.76
				c-2.47-3.66-2.43-6.66,0.08-9.48c2.37-2.66,6.41-3.25,9.86-1.34c1,0.55,1.95,1.26,2.77,2.06c9.95,9.68,19.89,19.37,29.78,29.11
				c1.31,1.29,2.44,2.79,3.43,4.34c1.63,2.53,1.84,5.22,0.19,7.86C327.52,284.34,324.97,285.22,322.48,285.35z"/>
			
				<linearGradient id="SVGID_00000139997342656266034290000000938506435614265736_" gradientUnits="userSpaceOnUse" x1="288.2154" y1="291.3783" x2="318.1064" y2="291.3783">
				<stop  offset="0" style="stop-color:#00AAB3"/>
				<stop  offset="0.4635" style="stop-color:#1591B0"/>
				<stop  offset="1" style="stop-color:#316FAD"/>
			</linearGradient>
			<path style="fill:url(#SVGID_00000139997342656266034290000000938506435614265736_);" d="M310.32,306.18
				c-2.92,0.11-5.08-1.53-7-3.37c-3.84-3.68-7.57-7.48-11.28-11.3c-0.96-0.99-1.74-2.17-2.45-3.35c-2.07-3.48-1.79-6.82,0.68-9.22
				c2.67-2.61,7.36-3.31,10.19-0.8c5.44,4.83,10.61,9.97,15.68,15.19c2.41,2.48,2.47,5.61,0.87,8.72
				C315.6,304.75,313.4,306.16,310.32,306.18z"/>
			
				<linearGradient id="SVGID_00000139973411904020908520000009472960401745965485_" gradientUnits="userSpaceOnUse" x1="286.8882" y1="406.6659" x2="310.4634" y2="406.6659">
				<stop  offset="0" style="stop-color:#00AAB3"/>
				<stop  offset="0.4635" style="stop-color:#1591B0"/>
				<stop  offset="1" style="stop-color:#316FAD"/>
			</linearGradient>
			<path style="fill:url(#SVGID_00000139973411904020908520000009472960401745965485_);" d="M310.46,402.74
				c0.02,1.42-0.28,2.78-1.12,3.93c-2.68,3.64-5.59,7.06-9.34,9.65c-3.57,2.47-8.11,2.3-10.86-0.34c-2.81-2.7-3.09-6.44-0.26-10.33
				c2.86-3.93,6.23-7.46,10.7-9.64C304.51,393.59,310.49,397.34,310.46,402.74z"/>
			
				<linearGradient id="SVGID_00000088817123286217002490000006799273190215498126_" gradientUnits="userSpaceOnUse" x1="286.7773" y1="435.4074" x2="310.4215" y2="435.4074">
				<stop  offset="0" style="stop-color:#00AAB3"/>
				<stop  offset="0.4635" style="stop-color:#1591B0"/>
				<stop  offset="1" style="stop-color:#316FAD"/>
			</linearGradient>
			<path style="fill:url(#SVGID_00000088817123286217002490000006799273190215498126_);" d="M310.42,431.77
				c-0.08,0.32-0.1,1.31-0.52,2.08c-2.98,5.38-7.09,9.7-12.61,12.47c-3.04,1.52-6.14,0.46-8.63-2.38c-2.19-2.49-2.51-5.25-0.71-7.96
				c2.9-4.37,6.53-8.19,10.91-10.98C303.92,421.76,310.38,425.41,310.42,431.77z"/>
			
				<linearGradient id="SVGID_00000145737491165085601510000004771091909693310888_" gradientUnits="userSpaceOnUse" x1="186.7534" y1="395.8563" x2="224.9516" y2="395.8563">
				<stop  offset="0" style="stop-color:#00AAB3"/>
				<stop  offset="0.4635" style="stop-color:#1591B0"/>
				<stop  offset="1" style="stop-color:#316FAD"/>
			</linearGradient>
			<path style="fill:url(#SVGID_00000145737491165085601510000004771091909693310888_);" d="M205.65,414.67
				c-10.57,0.82-18.73-9.61-18.9-19.07c-0.17-9.75,9.1-18.65,19.17-18.6c10.02,0.05,18.97,8.87,19.03,18.75
				C225.01,406.43,216.57,414.71,205.65,414.67z"/>
		</g>
	</g>
	
		<linearGradient id="SVGID_00000111888561825052558230000001369654363024216707_" gradientUnits="userSpaceOnUse" x1="63.5" y1="252.5" x2="486.5" y2="252.5">
		<stop  offset="0" style="stop-color:#00AAB3"/>
		<stop  offset="0.4635" style="stop-color:#1591B0"/>
		<stop  offset="1" style="stop-color:#316FAD"/>
	</linearGradient>
	<path style="fill:url(#SVGID_00000111888561825052558230000001369654363024216707_);" d="M486.5,158.33
		c0.06-17.68-7.51-30.42-22.35-39.2c-11.96-7.06-24.02-13.96-36.03-20.91c-30.31-17.57-60.55-35.09-90.8-52.6
		c-12.62-7.34-25.36-14.62-37.98-21.96l-0.22-0.06c-0.78-0.5-1.56-1-2.34-1.45c-0.45-0.33-0.95-0.61-1.45-0.83
		c-11.4-6.51-23.19-7.9-35.31-2.28c-0.06,0.11-0.11,0.17-0.22,0.22c-0.33,0.22-0.72,0.33-1.06,0.5
		c-27.3,13.79-53.27,30.03-79.85,45.15c-29.19,16.57-58.33,33.2-87.08,50.55c-4.95,3-10.06,5.84-14.4,9.73
		c-9.73,8.84-13.96,19.85-13.9,33.09c0.22,64.28,0.11,128.56,0.06,192.84c0,3.67,0.56,7.17,1.78,10.57
		c3.73,10.34,10.18,18.29,19.63,23.97c14.63,8.84,29.69,17.07,44.37,25.91c21.52,12.96,43.43,25.3,65.28,37.7
		c20.52,11.68,40.7,23.86,61.5,35.14c10.84,5.89,22.41,6.95,34.03,1.5c8.12-3.84,15.68-8.51,23.36-13.01
		c30.36-17.85,61.28-34.64,91.47-52.71c19.57-11.68,39.54-22.74,59.22-34.31c11.79-6.84,19.8-16.57,21.74-30.53
		c0.5-3.61,0.44-7.17,0.44-10.79C486.39,282.5,486.22,220.39,486.5,158.33z M261.52,469.18c-23.74-14.01-47.54-27.91-71.29-41.87
		c-12.79-7.45-25.58-15.01-38.31-22.52c-4.39-2.61-4.84-3.45-3.73-8.51c3.39-15.68,11.23-28.08,26.8-34.25
		c5.62-2.23,11.73-2.89,17.74-2.95c22.35-0.22,44.71-0.06,67.06-0.11c3.28-0.06,4.11,1.22,4.11,4.28
		c-0.11,16.46-0.06,32.92-0.06,49.38c0,15.13-0.06,30.31,0.06,45.49c0,3.11,0.39,6.23,0.5,9.34
		C264.52,469.68,264.18,470.79,261.52,469.18z M261.35,336.22c-24.74-4.39-41.93-19.13-53.94-40.37
		c-4.11-7.23-6.12-15.24-6.12-23.63c0-1.83,0.11-3.73-0.06-5.56c-1.5-21.24,9.68-34.81,27.14-44.49c8.17-4.61,17.18-5.95,26.41-6.23
		c6.51-0.22,12.96-0.06,20.96-0.06c9.45,0.17,20.52-0.67,31.36,1.33c22.8,4.28,38.76,23.24,42.32,43.37c2.5,14.23-2,27.64-9.4,40.04
		c-11.01,18.52-27.47,29.47-47.71,35.14C282.15,338.61,271.69,338.11,261.35,336.22z M225.2,204.77
		c14.68-11.4,30.97-17.57,49.55-18.07c17.4-0.45,44.37,9.45,51.94,19.13C293.21,195.87,259.51,196.65,225.2,204.77z M403.65,401.61
		c-36.98,21.85-73.96,43.65-110.99,65.5c-2.89,1.67-5.89,3.11-9.06,4.34c-2.11,0.83-3.06,0.28-3.06-2v-53.88
		c0-17.35,0.06-34.7-0.06-52.1c-0.06-3.45,1.06-4.56,4.56-4.56c26.14,0.11,52.33-0.22,78.52,0.17
		c22.85,0.28,37.03,13.18,43.43,34.14C408.54,398.33,408.15,398.94,403.65,401.61z M455.86,372.53
		c-10.18,6.39-20.91,11.9-31.36,17.85c-2.28,1.28-2.61-0.28-3.06-1.78c-2.11-7.56-6.01-14.23-10.56-20.57
		c-6.62-9.23-15.79-14.85-26.19-18.63c-3.17-1.17-4.5-2.89-4.06-6.17c0.11-1.22,0.06-2.56-0.06-3.84c-0.33-4.39-2.39-6.62-6.73-6.78
		c-3.22-0.17-4.28-1.33-3.84-4.56c0.39-2.61,0.22-5.34,0.11-8.01c-0.11-4.34-3.11-7.4-7.4-7.62c-4.5-0.33-7.95,2.39-8.4,6.9
		c-0.33,3-0.28,6.06-0.17,9.06c0.06,2.61-0.5,4.11-3.67,3.95c-3.67-0.22-7.4,0.11-11.07,0.17c-1.06,0-2.34,0.22-2.78-0.94
		c-0.44-1.17,0.67-1.84,1.39-2.56c6.67-6.62,12.73-13.73,17.74-21.74c2.39-3.73,4.23-7.73,5.12-12.12c0.61-2.95,2.22-4.23,5.06-4.78
		c12.01-2.11,17.79-10.62,21.3-21.3c0.33-1.06,0.56-2.39,0.28-3.45c-2.45-9.34-0.89-18.91-1.17-28.36
		c-0.28-8.9,0.06-17.79-0.17-26.75c-0.06-3.17,0.78-5.45,3.39-7.34c5-3.56,6.06-8.56,4.67-14.18c-1.5-6.01-5.12-10.06-11.34-11.45
		c-5.84-1.33-12.4,1.5-16.24,6.95c-3.73,5.28-3.73,9.4,0.33,15.4c1.78,2.61,2.56,5.34,2.56,8.45c-0.17,8.01-0.06,16.02-0.17,23.97
		c-0.06,1.56,1,3.67-1.22,4.62c-1.78,0.72-6.62-1.67-7.23-3.56c-1.5-4.23-3-8.51-5.23-12.46c-18.29-33.03-50.16-52.88-88.97-49.54
		c-24.69,2.11-45.04,13.12-61,32.14c-7.62,9.06-14.18,18.63-17.18,30.25c-0.56,2.28-2.45,3-4.34,3.56
		c-7.45,2.22-12.57,6.84-16.02,13.85c-7.17,14.46-0.06,32.75,15.24,37.98c3.45,1.17,5.17,2.89,6.4,6.28
		c4.67,12.9,13.12,23.35,22.41,33.14c0.83,0.89,2.5,1.67,2.06,3c-0.61,1.56-2.45,0.89-3.73,0.89c-11.62,0.06-23.19,0-34.75,0.06
		c-8.67,0.06-12.34,3.67-12.01,12.4c0.17,4.11-1.22,6.51-4.67,8.67c-13.96,8.67-22.58,21.35-26.64,37.14c-0.72,3-1.72,3.5-4.45,1.89
		c-10.79-6.34-21.8-12.23-32.36-19.02c-4.11-2.61-7.95-5.62-11.07-9.34c-3.06-3.61-5-7.78-5-12.68
		c0.06-65.67,0.06-131.34,0.17-197.01c0-10.45,6.78-16.68,14.85-21.52c11.57-7.06,23.41-13.68,35.14-20.46
		c43.65-25.3,87.36-50.6,131.07-75.9c9.23-5.34,18.46-5.23,27.69,0.11c29.19,16.85,58.44,33.59,87.58,50.43
		c26.41,15.18,52.77,30.42,79.07,45.76c9.9,5.78,15.29,13.9,15.07,26.14c-0.45,31.36-0.17,62.78-0.17,94.14h0.17
		c0,31.03-0.39,62.11,0.17,93.14C470.65,358.52,465.2,366.64,455.86,372.53z"/>
</g>
</svg>
