<?xml version="1.0" encoding="utf-8"?>
<!-- Generator: Adobe Illustrator 27.4.0, SVG Export Plug-In . SVG Version: 6.00 Build 0)  -->
<svg version="1.1" id="Layer_1" xmlns="http://www.w3.org/2000/svg" xmlns:xlink="http://www.w3.org/1999/xlink" x="0px" y="0px"
	 viewBox="0 0 550 505" style="enable-background:new 0 0 550 505;" xml:space="preserve">
<style type="text/css">
	.st0{fill:url(#SVGID_1_);}
	.st1{fill:url(#SVGID_00000101067293196571946360000004242881277047569544_);}
	.st2{fill:url(#SVGID_00000138560610448710188540000013801668271536711831_);}
	.st3{fill:url(#SVGID_00000022532605484831640970000008469878388705919410_);}
	.st4{fill:url(#SVGID_00000145046545635296725540000012413604293034543246_);}
	.st5{fill:url(#SVGID_00000162324407184903436870000018161461204928694660_);}
	.st6{fill:url(#SVGID_00000093177423316916501090000008623924676558786461_);}
	.st7{fill:url(#SVGID_00000021819659592722354300000008370193889747201450_);}
	.st8{fill:url(#SVGID_00000176026213245617598930000017389245514420743299_);}
	.st9{fill:url(#SVGID_00000062175602770252968070000013023808887432688553_);}
	.st10{fill:url(#SVGID_00000074400906143913992790000009851659215269345171_);}
	.st11{fill:url(#SVGID_00000125588268450762482900000017001362955120484520_);}
	.st12{fill:url(#SVGID_00000093139293169046027200000015882116967775015590_);}
	.st13{fill:url(#SVGID_00000140731161142454548090000015307629392758954403_);}
	.st14{fill:url(#SVGID_00000138536736789596184200000008410428922728173231_);}
	.st15{fill:url(#SVGID_00000147903145181011509410000002778764845847878062_);}
	.st16{fill:url(#SVGID_00000145034507815315589790000013166570746102628503_);}
	.st17{fill:url(#SVGID_00000083089867720232177410000018268541580723442824_);}
	.st18{fill:url(#SVGID_00000137105286164140485390000013909228034437191314_);}
	.st19{fill:none;}
	.st20{fill:url(#SVGID_00000104675400560570852700000001605152282378356870_);}
	.st21{fill:#7C7C7C;}
	.st22{fill:#02A7B3;}
	.st23{fill:url(#SVGID_00000094610680069423945140000014223948589133369270_);}
	.st24{fill:url(#SVGID_00000034048010560472727020000004543019597227753861_);}
	.st25{fill:url(#SVGID_00000069372130929080463040000013844391054609836470_);}
	.st26{fill:url(#SVGID_00000086679291019917578680000013986166881924830592_);}
	.st27{fill:url(#SVGID_00000014611974519412010650000005823591966028565660_);}
	.st28{fill:url(#SVGID_00000176731972115207172530000018058553241752807814_);}
	.st29{fill:url(#SVGID_00000096745566668914707620000003669199304310515355_);}
	.st30{fill:url(#SVGID_00000151526739210370652850000010595383309798623895_);}
	.st31{fill:url(#SVGID_00000067927540705122142680000004113911565692081322_);}
	.st32{fill:url(#SVGID_00000170268693804928287390000017893523125092115101_);}
	.st33{fill:url(#SVGID_00000116208620678596609100000008689022396076040851_);}
	.st34{fill:url(#SVGID_00000045605153475377913290000013952238775063265963_);}
	.st35{fill:url(#SVGID_00000132767998543631968480000010703758325391840949_);}
	.st36{fill:url(#SVGID_00000167365640180971123970000006132367766023548811_);}
	.st37{fill:url(#SVGID_00000167384046428404433420000008166648763921745847_);}
</style>
<g id="ZkKuKR.tif">
	<g>
		<linearGradient id="SVGID_1_" gradientUnits="userSpaceOnUse" x1="141.8967" y1="210.4218" x2="408.1033" y2="210.4218">
			<stop  offset="0" style="stop-color:#00AAB3"/>
			<stop  offset="0.4635" style="stop-color:#1591B0"/>
			<stop  offset="1" style="stop-color:#316FAD"/>
		</linearGradient>
		<path class="st0" d="M408.1,186.49c-0.63,31.61-11.08,59.58-31.03,84.11c-4.35,5.35-9.59,9.88-14.01,15.09
			c-10.55,12.42-17.66,26.73-21.03,42.77c-0.66,3.13-1.11,6.32-1.52,9.5c-1.04,8.06-6.56,14.23-15.22,16.18
			c-6.92,1.56-13.96,2.63-20.95,3.89c-20.52,3.7-41.04,7.46-61.58,11.02c-7.78,1.35-14.82-2.77-18.11-10.08
			c-2.89-6.42-1.15-14.39,4.25-18.78c3.48-2.82,7.71-3.96,12.03-4.75c20.63-3.77,41.24-7.66,61.91-11.15
			c4.3-0.73,6.16-2.5,7.24-6.59c5.25-19.92,14.88-37.67,27.66-53.72c4.63-5.82,10.38-10.63,14.97-16.57
			c13.3-17.21,19.87-36.71,20.74-58.28c1.26-30.97-10.46-56.78-32.61-77.65c-15.18-14.3-33.54-22.82-54.65-25.08
			c-17.73-1.9-34.72,0.19-51.06,7.32c-20.45,8.93-36.21,23.37-47.38,42.43c-7.06,12.04-10.56,25.6-12.16,39.52
			c-3.06,26.52,4.53,50.16,20.06,71.37c9.35,12.78,21.71,22.26,35.62,29.74c2.62,1.41,5.3,2.76,7.76,4.42
			c6.59,4.45,8.73,12.29,5.55,19.71c-3.17,7.39-10.37,11.16-18.21,9.54c-6.75-1.4-12.52-5.07-18.43-8.3
			c-16.95-9.27-29.91-22.89-41.21-38.3c-13.32-18.18-21.04-38.5-23.76-60.79c-4.5-36.98,5.18-70.05,27.3-99.81
			c20.17-27.14,47.74-42.37,80.06-49.46c12.5-2.74,25.38-2.65,38.3-1.45c27.02,2.5,50.28,13.62,71.1,30.2
			c19.24,15.32,32.07,35.33,40.15,58.46C405.28,156.5,408.05,172.09,408.1,186.49z"/>
		
			<linearGradient id="SVGID_00000067212708247027451440000005237850565234536085_" gradientUnits="userSpaceOnUse" x1="230.4901" y1="389.5181" x2="335.0555" y2="389.5181">
			<stop  offset="0" style="stop-color:#00AAB3"/>
			<stop  offset="0.4635" style="stop-color:#1591B0"/>
			<stop  offset="1" style="stop-color:#316FAD"/>
		</linearGradient>
		<path style="fill:url(#SVGID_00000067212708247027451440000005237850565234536085_);" d="M335.05,384.91
			c-0.22,4.01-2.35,7.98-6.56,10.79c-5.09,3.41-10.92,4.56-16.8,5.61c-20.39,3.66-40.77,7.42-61.17,11.06
			c-6.91,1.23-14.69-2.66-18.02-8.75c-3.29-6.01-2.54-13.37,2.1-18.57c3.37-3.77,7.94-5.3,12.75-6.18c16.55-3.02,33.12-5.99,49.67-9
			c5.74-1.04,11.48-2.16,17.23-3.15C325.5,364.78,335.14,372.76,335.05,384.91z"/>
		
			<linearGradient id="SVGID_00000089563395526178142980000007649350632891411871_" gradientUnits="userSpaceOnUse" x1="240.2632" y1="432.2841" x2="325.2131" y2="432.2841">
			<stop  offset="0" style="stop-color:#00AAB3"/>
			<stop  offset="0.4635" style="stop-color:#1591B0"/>
			<stop  offset="1" style="stop-color:#316FAD"/>
		</linearGradient>
		<path style="fill:url(#SVGID_00000089563395526178142980000007649350632891411871_);" d="M258.85,453.46
			c-10.24-0.1-16.97-5.33-18.43-14.42c-0.94-5.86,2.47-12.69,7.67-15.72c5.51-3.21,11.73-3.77,17.79-4.91
			c12.72-2.38,25.45-4.71,38.2-6.95c10.1-1.77,17.91,3.05,20.69,12.59c1.65,5.66-1.4,13.35-6.39,16.57
			c-6.6,4.26-14.24,4.86-21.63,6.28c-10.91,2.1-21.85,4.04-32.78,6.01C262.28,453.22,260.55,453.29,258.85,453.46z"/>
	</g>
</g>
</svg>
