<?xml version="1.0" encoding="utf-8"?>
<!-- Generator: Adobe Illustrator 27.4.0, SVG Export Plug-In . SVG Version: 6.00 Build 0)  -->
<svg version="1.1" id="Layer_1" xmlns="http://www.w3.org/2000/svg" xmlns:xlink="http://www.w3.org/1999/xlink" x="0px" y="0px"
	 viewBox="0 0 550 505" style="enable-background:new 0 0 550 505;" xml:space="preserve">
<style type="text/css">
	.st0{fill:url(#SVGID_1_);}
	.st1{fill:url(#SVGID_00000148656196563867551010000012845177389468871813_);}
	.st2{fill:url(#SVGID_00000176033160621704085390000017939215528562578095_);}
	.st3{fill:url(#SVGID_00000119813096830603367500000007666389949484778923_);}
	.st4{fill:url(#SVGID_00000152232518733979752800000016892697411345307834_);}
	.st5{fill:url(#SVGID_00000074415033357378679030000000429146452601498254_);}
	.st6{fill:url(#SVGID_00000097495580611682122410000007016294256083166627_);}
	.st7{fill:url(#SVGID_00000013175370875411166280000015528959172155084721_);}
	.st8{fill:url(#SVGID_00000134940612081427503720000006802171412914494111_);}
	.st9{fill:url(#SVGID_00000128480449494932738990000003047563505410249100_);}
	.st10{fill:url(#SVGID_00000139990233727428425070000014110098785924191144_);}
	.st11{fill:url(#SVGID_00000112620823965682949530000007133044854920644504_);}
	.st12{fill:url(#SVGID_00000016049510032337257620000016018880143117158037_);}
	.st13{fill:url(#SVGID_00000168078978976192058220000003601687270248054168_);}
	.st14{fill:url(#SVGID_00000155839494567879320300000013183922302814164158_);}
	.st15{fill:url(#SVGID_00000067943139664529363100000007076487824263641262_);}
	.st16{fill:url(#SVGID_00000134958025229411438360000010266226220010405014_);}
	.st17{fill:url(#SVGID_00000020385411135777309280000017929237798755703955_);}
	.st18{fill:url(#SVGID_00000179618134087089563680000002813161834840106397_);}
	.st19{fill:none;}
	.st20{fill:url(#SVGID_00000104706115911379011490000012737660751923364247_);}
	.st21{fill:#316FAD;}
</style>
<g id="_x36_s4bgg.tif">
	<g>
		<linearGradient id="SVGID_1_" gradientUnits="userSpaceOnUse" x1="280.9837" y1="42.5" x2="280.9837" y2="450">
			<stop  offset="0" style="stop-color:#00AAB3"/>
			<stop  offset="0.4635" style="stop-color:#1591B0"/>
			<stop  offset="1" style="stop-color:#316FAD"/>
		</linearGradient>
		<path class="st0" d="M225.2,42.5c4.01,1.17,8.15,1.81,12.16,3.02c13.01,3.93,25.03,9.94,36.53,17.07c2.03,1.26,4.08,2.5,6.01,3.91
			c1.32,0.97,2.4,0.93,3.81,0.18c11.94-6.39,24.45-11.33,37.65-14.46c9.81-2.33,19.76-3.54,29.83-2.88
			c19.3,1.26,35.37,9.06,47.9,24.02c10.58,12.63,19.28,26.35,25.05,41.83c3.89,10.44,6.34,21.21,7.21,32.35
			c1.72,22.05-2.73,42.78-12.84,62.37c-1.95,3.78-4.07,7.47-6.53,10.94c-1.06,1.5-1.51,3.01-1.43,4.82
			c0.09,2.25-0.05,4.52,0.01,6.77c0.05,1.59-0.51,2.37-2.19,2.23c-0.92-0.08-1.86-0.01-2.79-0.01c-31.75,0-63.5,0-95.25,0
			c-2.98,0-2.99,0.01-2.99,2.95c0,7.11,0,14.21,0,21.32c0,2.72,0.01,2.73,2.8,2.73c21.79,0,43.57,0,65.36,0
			c0.6,0,1.2,0.04,1.79-0.01c1.66-0.13,2.28,0.42,1.86,2.2c-1.72,7.24-3.36,14.49-4.97,21.75c-0.34,1.53-1.2,2.02-2.68,1.99
			c-3.45-0.06-6.91-0.02-10.36-0.02c-17,0-34.01,0-51.01,0c-2.76,0-2.79,0.03-2.79,2.77c-0.01,7.04,0,14.08,0,21.12
			c0,2.81,0.01,2.82,2.92,2.82c17.74,0,35.47,0,53.21,0c3.01,0,3.14,0.14,2.25,3.04c-2.23,7.31-4.57,14.58-6.7,21.91
			c-0.62,2.15-1.71,2.7-3.83,2.69c-15.01-0.08-30.02-0.05-45.04-0.04c-2.8,0-2.81,0.01-2.81,2.73c0,7.31,0.05,14.61-0.04,21.92
			c-0.02,1.85,0.63,2.39,2.42,2.38c11.89-0.06,23.78-0.03,35.67-0.03c2.61,0,2.71,0.17,1.7,2.54c-3.46,8.13-7.01,16.21-11.14,24.03
			c-0.69,1.3-1.53,1.79-2.97,1.78c-7.64-0.05-15.28-0.03-22.92-0.02c-2.69,0-2.73,0.04-2.73,2.62c-0.01,7.24,0.05,14.48-0.04,21.72
			c-0.02,1.85,0.62,2.42,2.42,2.4c5.45-0.09,10.89-0.04,16.34-0.02c0.77,0,1.82-0.37,2.24,0.35c0.49,0.83-0.57,1.37-1.03,1.93
			c-6.29,7.56-13.31,14.29-22.19,18.78c-15.71,7.94-30.69,6.13-44.99-3.56c-6.42-4.36-11.87-9.79-16.71-15.84
			c-0.31-0.39-0.95-0.73-0.58-1.33c0.32-0.51,0.97-0.33,1.48-0.33c5.71-0.01,11.43-0.06,17.14,0.02c1.8,0.03,2.45-0.55,2.42-2.4
			c-0.08-7.31-0.09-14.61,0-21.92c0.03-1.98-0.74-2.47-2.57-2.45c-7.64,0.08-15.28,0-22.92,0.06c-1.6,0.01-2.52-0.51-3.26-1.97
			c-4.01-7.95-7.82-15.99-11.16-24.25c-0.8-1.99-0.7-2.14,1.44-2.14c11.89-0.01,23.78,0,35.67-0.01c2.74,0,2.75-0.01,2.75-2.78
			c0-7.17,0.01-14.35,0-21.52c0-2.67-0.02-2.69-2.64-2.69c-15.08,0-30.16-0.04-45.24,0.04c-2.08,0.01-3.05-0.61-3.69-2.63
			c-2.34-7.41-4.72-14.8-6.85-22.28c-0.74-2.6-0.67-2.72,2.01-2.72c17.74-0.01,35.47,0,53.21,0c3.19,0,3.2,0,3.2-3.14
			c0-6.97,0.01-13.95,0-20.92c0-2.58-0.08-2.65-2.72-2.65c-20.19,0-40.39,0-60.58,0c-2.97,0-3,0-3.68-2.92
			c-1.59-6.79-3.14-13.59-4.7-20.38c-0.57-2.48-0.47-2.62,2.08-2.62c22.05-0.01,44.11,0,66.16,0c0.66,0,1.33-0.02,1.99-0.02
			c1,0,1.44-0.5,1.44-1.48c0-7.97-0.01-15.94,0.01-23.91c0-1.07-0.46-1.61-1.55-1.59c-0.66,0.01-1.33-0.01-1.99-0.01
			c-33.88,0-67.75,0-101.63,0c-3.2,0-3.2,0-3.18-3.18c0.01-1.86-0.03-3.72,0.25-5.57c0.26-1.7-0.18-3.14-1.16-4.65
			c-8.43-12.89-14.32-26.94-18.56-41.7c-4.02-14-6.15-28.28-5.66-42.87c0.82-23.96,8.45-45.38,23.98-63.82
			c7.5-8.9,16.01-16.65,25.96-22.72c5.48-3.35,11.43-5.62,17.72-6.97c0.84-0.18,1.66-0.45,2.49-0.68
			C208.72,42.5,216.96,42.5,225.2,42.5z M283.11,205.09c11.16,0,22.32,0,33.47,0c25.44,0,50.88,0,76.31,0.01
			c1.38,0,2.48-0.09,3.31-1.55c13.97-24.37,16.56-49.94,8.07-76.63c-4.36-13.72-11.75-25.81-20.71-36.99
			c-5.2-6.48-11.31-11.78-19.22-14.7c-8.32-3.07-16.9-3.71-25.69-2.88c-12.39,1.17-24.01,4.96-35.35,9.83
			c-1.29,0.55-1.25,0.96-0.2,1.85c6.07,5.16,11.99,10.49,17.53,16.23c1.48,1.54,2.83,3.17,3.43,5.29
			c1.48,5.23-0.47,10.34-5.03,13.12c-4.33,2.64-9.85,1.92-13.75-1.83c-2.91-2.81-5.77-5.68-8.76-8.42
			c-11.88-10.89-24.52-20.76-38.39-29.01c-11.25-6.7-23.01-12.22-36.07-14.32c-11.19-1.79-22.02-0.82-31.84,5.48
			c-5.95,3.82-11.09,8.62-15.89,13.8c-7.18,7.74-12.65,16.53-16.34,26.42c-5.28,14.15-6.04,28.75-4.17,43.57
			c2.16,17.07,7.76,33.02,15.75,48.2c1.07,2.03,2.35,2.58,4.53,2.58C210.45,205.07,246.78,205.09,283.11,205.09z"/>
	</g>
</g>
</svg>
