<?xml version="1.0" encoding="utf-8"?>
<!-- Generator: Adobe Illustrator 27.4.0, SVG Export Plug-In . SVG Version: 6.00 Build 0)  -->
<svg version="1.1" id="Layer_1" xmlns="http://www.w3.org/2000/svg" xmlns:xlink="http://www.w3.org/1999/xlink" x="0px" y="0px"
	 viewBox="0 0 550 505" style="enable-background:new 0 0 550 505;" xml:space="preserve">
<style type="text/css">
	.st0{fill:url(#SVGID_1_);}
	.st1{fill:url(#SVGID_00000118362108959768137830000014272906012990974607_);}
	.st2{fill:url(#SVGID_00000010990267581301496360000005976107674403795598_);}
	.st3{fill:url(#SVGID_00000019670905210004333430000001191805250133212855_);}
	.st4{fill:url(#SVGID_00000064351996462044725620000006898025090251261334_);}
	.st5{fill:url(#SVGID_00000141439955280735502080000012624112667384527518_);}
	.st6{fill:url(#SVGID_00000033355307248445498910000005215206078404555168_);}
	.st7{fill:url(#SVGID_00000069359719697284069230000001588287477551352234_);}
	.st8{fill:url(#SVGID_00000012449386832711359800000009031011020081490860_);}
	.st9{fill:url(#SVGID_00000142172422484071662550000010013072687313856171_);}
	.st10{fill:url(#SVGID_00000004522712318271057970000008596997648815678654_);}
	.st11{fill:url(#SVGID_00000158028303845392093870000003264187139407461033_);}
	.st12{fill:url(#SVGID_00000181788444111904173490000017092587763729094060_);}
	.st13{fill:url(#SVGID_00000003810030872950989770000006265314765661595561_);}
	.st14{fill:url(#SVGID_00000136388181632866725610000001793380051775831708_);}
	.st15{fill:url(#SVGID_00000021112381723334058730000011089030866594215352_);}
	.st16{fill:url(#SVGID_00000005946589111023658780000008149257553514686395_);}
	.st17{fill:url(#SVGID_00000113313092901392042980000004509163620293286787_);}
	.st18{fill:url(#SVGID_00000014611124685880323200000008783714891055522179_);}
	.st19{fill:none;}
	.st20{fill:url(#SVGID_00000010268580931230752990000010904838224598497427_);}
	.st21{fill:#316FAD;}
</style>
<g id="gGtKPA.tif">
	<g>
		<linearGradient id="SVGID_1_" gradientUnits="userSpaceOnUse" x1="398.9414" y1="33.33" x2="398.9414" y2="466">
			<stop  offset="0" style="stop-color:#00AAB3"/>
			<stop  offset="0.4635" style="stop-color:#1591B0"/>
			<stop  offset="1" style="stop-color:#316FAD"/>
		</linearGradient>
		<path class="st0" d="M466.21,139.23c0.01-3.53,0.29-7.07,0.27-10.6c-0.03-3.78-1.45-5.12-5.16-5.14
			c-14.86-0.12-29.73-0.23-44.59-0.34c-3.28-0.03-3.29-0.02-3.28-3.31c0.02-27.68,0.03-55.37,0.05-83.05c0-1.16,0.15-2.34-0.23-3.46
			h-7.24c-0.03,0.06-0.07,0.13-0.11,0.2c-5.94,9.98-11.77,20.01-17.73,29.97c-1.33,2.22-1.93,4.48-1.92,7.04
			c0.03,16.5-0.01,32.99-0.03,49.49c-0.01,3.08-0.02,3.08-3.05,3.08c-15.23-0.01-30.45-0.03-45.67-0.03c-3.95,0-5.23,1.29-5.27,5.19
			c-0.17,16.92-0.11,33.83-0.26,50.75c-0.46,51.25,0.16,102.51-0.48,153.77c-0.22,17.27-0.06,34.56-0.08,51.83
			c-0.01,5.38-0.03,10.77,0,16.14c0.01,3.29,1.48,4.75,4.8,4.86c0.71,0.02,1.42,0.01,2.12,0.01c13.94,0.01,27.9,0.06,41.85,0
			c2.03-0.01,2.74,0.64,2.67,2.68c-0.13,3.89-0.13,7.79-0.01,11.68c0.07,2.06-0.68,2.68-2.69,2.66c-9.35-0.1-18.69-0.08-28.04-0.09
			c-4.41-0.01-5.43,0.99-5.43,5.32c-0.02,10.55-0.03,21.1-0.03,31.65c0,4.31,1.22,5.5,5.57,5.57c10.54,0.18,21.09,0.08,31.64,0.32
			c19.25,0.44,38.5,0.42,57.75,0.57c4.08,0.03,5.37-1.26,5.38-5.3c0.02-10.61,0.03-21.23,0.03-31.85c0-4.07-1.27-5.29-5.32-5.39
			c-10.39-0.25-20.79-0.56-31.18-0.78c-1.67-0.03-2.24-0.67-2.22-2.29c0.07-3.9,0.03-7.79,0.03-11.68c0-3.02,0.01-3.03,3.11-3.02
			c15.99,0.11,31.99,0.25,47.99,0.33c4.85,0.03,6.2-1.38,6.23-6.18c0.21-41.63-0.02-83.25,0.33-124.89
			C466.39,229.72,466.16,184.47,466.21,139.23z M443.06,224.93c-0.58,48.99-0.13,97.99-0.38,146.98c-0.02,2.97-0.26,5.93-0.29,8.9
			c-0.02,1.94-1.27,1.87-2.6,1.87c-12.68-0.01-25.35-0.02-38.02-0.03h-3.4v-0.03c-13.53,0-27.05,0.01-40.57,0c-2.97,0-3-0.03-3-2.93
			c0.03-42.56-0.2-85.11,0.19-127.67c0.31-34.27,0.09-68.53,0.31-102.8c0.02-3.1,0.01-3.15,3.21-3.1
			c27.33,0.42,54.65,0.36,81.98,0.33c2.22-0.01,2.74,0.78,2.73,2.85C443.12,174.51,443.36,199.72,443.06,224.93z"/>
		
			<linearGradient id="SVGID_00000110440516544535387880000007013987669583836579_" gradientUnits="userSpaceOnUse" x1="194.2521" y1="38.2377" x2="194.2521" y2="465.5874">
			<stop  offset="0" style="stop-color:#00AAB3"/>
			<stop  offset="0.4635" style="stop-color:#1591B0"/>
			<stop  offset="1" style="stop-color:#316FAD"/>
		</linearGradient>
		<path style="fill:url(#SVGID_00000110440516544535387880000007013987669583836579_);" d="M282.97,458.58
			c-0.37-5.93-0.88-11.84-1.31-17.77c-0.69-9.74-1.38-19.47-2.03-29.2c-0.48-7.12-0.92-14.25-1.39-21.38
			c-0.66-10.23-1.36-20.46-2-30.69c-0.49-7.83-0.9-15.68-1.39-23.51c-0.65-10.44-1.37-20.88-2-31.33
			c-0.51-8.46-0.89-16.94-1.39-25.41c-0.78-13.2-1.66-26.39-2.42-39.6c-0.52-8.82-0.88-17.66-1.39-26.48
			c-0.79-14.05-1.67-28.09-2.44-42.14c-0.12-2.19-1-3.45-3.02-4.33c-11.67-5.09-23.28-10.35-34.97-15.41
			c-9.02-3.9-17.88-8.2-26.99-11.92c-7.89-3.22-15.36-7.26-21.94-12.77c-4.85-4.08-8.9-8.78-10.31-15.17
			c-1.58-7.15,0.52-13.6,4.22-19.62c3.94-6.41,9.3-11.55,15.13-16.21c1.32-1.06,2.13-2.23,2.09-3.93
			c-0.25-9.48-0.52-18.96-0.74-28.43c-0.11-4.55-1.6-5.79-5.95-4.61c-13.79,3.76-26.97,9.06-39.34,16.25
			c-10.8,6.27-20.56,13.79-28.01,24c-6.75,9.24-10.3,19.55-9.87,30.97c0.41,10.97,3.87,21.12,9.65,30.44
			c7.79,12.54,17.03,24.01,26.47,35.31c17.51,20.96,34.83,42.09,52.07,63.28c1.6,1.96,3.25,3.87,3.94,6.46
			c1.23,4.58,2.69,9.09,4.06,13.64c10.47,34.77,20.98,69.53,31.38,104.32c1.82,6.08,4.32,12.01,4.79,18.45
			c1.03,14.1,2.03,28.21,2.99,42.31c0.78,11.5,1.47,23,2.23,34.51c0.31,4.64,2.73,6.92,7.38,6.98c4.39,0.04,8.79,0.01,13.17,0.01
			c4.25,0,8.5,0.02,12.75,0C281.27,465.55,283.27,463.48,282.97,458.58z M204.38,202.99c-10.38-0.01-18.6-8.22-18.62-18.59
			c-0.02-10.22,8.42-18.71,18.63-18.73c10.08-0.02,18.68,8.62,18.67,18.74C223.05,194.69,214.7,203,204.38,202.99z"/>
		
			<linearGradient id="SVGID_00000032637209498547794250000011355467318191901832_" gradientUnits="userSpaceOnUse" x1="134.73" y1="178.9666" x2="134.73" y2="465.5894">
			<stop  offset="0" style="stop-color:#00AAB3"/>
			<stop  offset="0.4635" style="stop-color:#1591B0"/>
			<stop  offset="1" style="stop-color:#316FAD"/>
		</linearGradient>
		<path style="fill:url(#SVGID_00000032637209498547794250000011355467318191901832_);" d="M103.34,465.58
			c-4.25,0-8.5,0.01-12.74-0.01c-0.99-0.01-1.99-0.04-2.95-0.25c-3.62-0.8-5.13-2.62-4.82-6.32c0.33-3.94,0.92-7.87,1.5-11.78
			c4.79-32.62,10-65.17,15.52-97.68c4.44-26.16,8.87-52.32,13.43-78.46c5.1-29.2,10.36-58.38,15.56-87.57
			c0.09-0.49,0.22-0.97,0.3-1.46c0.25-1.55,1.09-2.62,2.63-2.99c1.5-0.37,2.58,0.42,3.49,1.51c3.92,4.74,7.84,9.49,11.77,14.23
			c12.62,15.27,25.22,30.55,37.91,45.77c1.77,2.13,2.24,3.99,1.18,6.72c-15.74,40.51-31.41,81.05-46.96,121.63
			c-2.08,5.42-2.54,11.31-3.51,17.02c-4.12,24.27-7.49,48.66-11.03,73.02c-0.62,4.25-3.18,6.55-7.45,6.59
			C112.55,465.61,107.95,465.58,103.34,465.58z"/>
		
			<linearGradient id="SVGID_00000113323198776963623140000016038973370151121283_" gradientUnits="userSpaceOnUse" x1="247.3087" y1="37.8545" x2="247.3087" y2="158.1094">
			<stop  offset="0" style="stop-color:#00AAB3"/>
			<stop  offset="0.4635" style="stop-color:#1591B0"/>
			<stop  offset="1" style="stop-color:#316FAD"/>
		</linearGradient>
		<path style="fill:url(#SVGID_00000113323198776963623140000016038973370151121283_);" d="M285.91,101.46
			c-0.27,10.56-2.57,20.76-5.62,30.8c-2.18,7.18-4.48,14.33-8.41,20.81c-0.62,1.02-1.32,2.02-2.1,2.93
			c-1.83,2.11-4.09,2.64-6.67,1.56c-17.18-7.18-34.34-14.37-51.52-21.55c-1.6-0.67-2.93-1.56-2.9-3.5c0.03-1.95,1.47-2.74,3.03-3.41
			c11.06-4.68,19.02-12.61,24.07-23.42c3.45-7.38,1.81-15.34-3.96-21.6c-3.92-4.24-8.59-7.36-13.86-9.58
			c-2.12-0.89-2.87-2.26-3.03-4.54c-0.62-8.9,0.05-17.83-0.69-26.73c-0.06-0.77-0.05-1.57,0.07-2.33c0.33-2.11,2.02-3.42,4.11-2.98
			c19.73,4.16,37.99,11.41,52.41,26.12c8.92,9.1,14.05,20.1,14.81,32.97c0.05,0.78,0.22,1.54,0.27,2.32
			C285.95,100.04,285.91,100.75,285.91,101.46z"/>
		
			<linearGradient id="SVGID_00000128451528714090612380000003493817705373015689_" gradientUnits="userSpaceOnUse" x1="398.7484" y1="153.2983" x2="398.7484" y2="296.9677">
			<stop  offset="0" style="stop-color:#00AAB3"/>
			<stop  offset="0.4635" style="stop-color:#1591B0"/>
			<stop  offset="1" style="stop-color:#316FAD"/>
		</linearGradient>
		<path style="fill:url(#SVGID_00000128451528714090612380000003493817705373015689_);" d="M388.19,153.64
			c14.93,0,29.86-0.01,44.79,0.01c3.23,0,4.7,1.41,4.67,4.66c-0.13,15.92-0.24,31.84-0.52,47.76c-0.05,3.1-0.31,6.22-0.25,9.33
			c0.04,1.92-0.61,3.4-2.02,4.68c-7.07,6.43-13.86,13.16-20.44,20.08c-5.16,5.43-10.41,10.86-14.16,17.42
			c-2.5,4.38-5.2,8.59-8.42,12.46c-7.67,9.21-16.27,17.52-25.07,25.62c-1.43,1.31-3.1,1.71-4.91,0.88c-1.74-0.8-2.04-2.37-2.02-4.1
			c0.19-13.09,0.24-26.18,0.57-39.27c0.31-11.95,0.6-23.9,0.78-35.85c0.25-15.92,0.51-31.83,0.93-47.74
			c0.1-3.67,0.26-7.35,0.31-11.03c0.06-3.68,1.46-5.19,5.16-5.22c6.87-0.06,13.73-0.02,20.6-0.02
			C388.19,153.42,388.19,153.53,388.19,153.64z"/>
		
			<linearGradient id="SVGID_00000172419824761271426970000012344038701511369098_" gradientUnits="userSpaceOnUse" x1="420.4767" y1="337.2357" x2="420.4767" y2="350.8799">
			<stop  offset="0" style="stop-color:#00AAB3"/>
			<stop  offset="0.4635" style="stop-color:#1591B0"/>
			<stop  offset="1" style="stop-color:#316FAD"/>
		</linearGradient>
		<path style="fill:url(#SVGID_00000172419824761271426970000012344038701511369098_);" d="M420.46,350.87
			c-2.62,0-5.23-0.02-7.85,0.01c-2.04,0.02-3-0.95-2.98-2.97c0.02-2.48-0.04-4.95,0.02-7.43c0.06-2.28,0.86-3.17,3.06-3.19
			c5.16-0.06,10.33-0.06,15.49,0.01c2.31,0.03,3.07,0.87,3.11,3.1c0.04,2.48,0.03,4.95,0,7.43c-0.03,2.47-0.57,3.02-3,3.05
			C425.69,350.9,423.08,350.87,420.46,350.87z"/>
		
			<linearGradient id="SVGID_00000084489321796482142280000004958443230368051361_" gradientUnits="userSpaceOnUse" x1="418.671" y1="299.8391" x2="418.671" y2="313.4692">
			<stop  offset="0" style="stop-color:#00AAB3"/>
			<stop  offset="0.4635" style="stop-color:#1591B0"/>
			<stop  offset="1" style="stop-color:#316FAD"/>
		</linearGradient>
		<path style="fill:url(#SVGID_00000084489321796482142280000004958443230368051361_);" d="M418.74,313.45c-2.76,0-5.51-0.01-8.27,0
			c-1.74,0-2.62-0.82-2.61-2.59c0.01-2.83,0.01-5.66,0.01-8.48c0-1.78,0.94-2.55,2.66-2.55c5.23,0.01,10.46-0.02,15.7,0.03
			c2.41,0.02,3.43,1.02,3.25,3.42c-0.19,2.54-0.22,5.08-0.24,7.62c-0.01,1.77-0.91,2.57-2.64,2.56c-2.62-0.01-5.23,0-7.85,0
			C418.74,313.46,418.74,313.46,418.74,313.45z"/>
		
			<linearGradient id="SVGID_00000003076232210238307350000000129514718273261952_" gradientUnits="userSpaceOnUse" x1="419.8275" y1="259.0526" x2="419.8275" y2="272.6965">
			<stop  offset="0" style="stop-color:#00AAB3"/>
			<stop  offset="0.4635" style="stop-color:#1591B0"/>
			<stop  offset="1" style="stop-color:#316FAD"/>
		</linearGradient>
		<path style="fill:url(#SVGID_00000003076232210238307350000000129514718273261952_);" d="M419.69,272.68
			c-2.61,0-5.23-0.02-7.84,0.01c-1.84,0.02-2.75-0.82-2.73-2.69c0.03-2.75,0.03-5.51,0.01-8.26c-0.02-1.87,0.9-2.69,2.74-2.68
			c5.22,0.02,10.45,0.02,15.67,0.01c1.97,0,3.04,0.81,2.98,2.92c-0.07,2.61,0.01,5.23-0.03,7.84c-0.04,2.28-0.6,2.82-2.96,2.85
			C424.92,272.71,422.31,272.69,419.69,272.68C419.69,272.68,419.69,272.68,419.69,272.68z"/>
	</g>
</g>
</svg>
