<?xml version="1.0" encoding="utf-8"?>
<!-- Generator: Adobe Illustrator 27.4.0, SVG Export Plug-In . SVG Version: 6.00 Build 0)  -->
<svg version="1.1" id="Layer_1" xmlns="http://www.w3.org/2000/svg" xmlns:xlink="http://www.w3.org/1999/xlink" x="0px" y="0px"
	 viewBox="0 0 550 505" style="enable-background:new 0 0 550 505;" xml:space="preserve">
<style type="text/css">
	.st0{fill:url(#SVGID_1_);}
	.st1{fill:url(#SVGID_00000158727826660284347720000000417028840947243149_);}
	.st2{fill:url(#SVGID_00000182494094475713458500000000724264862182836353_);}
	.st3{fill:url(#SVGID_00000077316903199497888310000000689374069671744652_);}
	.st4{fill:url(#SVGID_00000136394958145715352140000015548219126260184965_);}
	.st5{fill:url(#SVGID_00000007425629129955947900000010229297013708045964_);}
	.st6{fill:url(#SVGID_00000095332262696770911460000009089974618700481931_);}
	.st7{fill:url(#SVGID_00000106867289842098597170000009415009064150075819_);}
	.st8{fill:url(#SVGID_00000112599457865471405230000010568027988267491495_);}
	.st9{fill:url(#SVGID_00000183229567851999101600000008936116522500721029_);}
	.st10{fill:url(#SVGID_00000057137371557941882850000016533516339622918564_);}
	.st11{fill:url(#SVGID_00000036962169649498330170000015247824977703204229_);}
	.st12{fill:url(#SVGID_00000149348145596674171670000003541859245055626659_);}
	.st13{fill:url(#SVGID_00000008135057351700827890000007814771603506851517_);}
	.st14{fill:url(#SVGID_00000079466584973055164090000013482492196423137714_);}
	.st15{fill:url(#SVGID_00000150809827244150644120000012601646737246421689_);}
	.st16{fill:url(#SVGID_00000115497783214756091060000008129370225202485665_);}
	.st17{fill:url(#SVGID_00000077312845861747404710000012362059266565018536_);}
	.st18{fill:url(#SVGID_00000082362162357833597680000010456216546224234903_);}
	.st19{fill:none;}
	.st20{fill:url(#SVGID_00000160873317448576145350000006368327103387303325_);}
	.st21{fill:#316FAD;}
</style>
<g id="rsRVhG.tif">
	<g>
		<linearGradient id="SVGID_1_" gradientUnits="userSpaceOnUse" x1="275" y1="34.3981" x2="275" y2="470.602">
			<stop  offset="0" style="stop-color:#00AAB3"/>
			<stop  offset="0.4635" style="stop-color:#1591B0"/>
			<stop  offset="1" style="stop-color:#316FAD"/>
		</linearGradient>
		<path class="st0" d="M56.51,344.99c0-5.4,0-10.81,0-16.21c0.46-1.22,0.35-2.52,0.5-3.79c2.79-25,12.97-46.34,30.89-64.17
			c41.59-41.34,82.97-82.89,124.43-124.35c24.28-24.28,48.55-48.55,72.82-72.83c12.26-12.27,26.71-20.82,43.34-25.76
			c4.98-1.48,10.1-2.3,15.15-3.48c10.95,0,21.9,0,32.85,0c1.1,0.25,2.2,0.56,3.31,0.74c12.3,2.03,24.06,5.79,35.22,11.28
			c27.52,13.55,48.65,33.85,63.11,60.88c11.9,22.23,17.24,45.99,14.76,71.21c-2.4,24.33-11.9,45.52-29.27,62.92
			c-38.63,38.7-77.32,77.34-115.99,116c-27.6,27.6-55.21,55.2-82.81,82.82c-10.25,10.26-22.07,18.13-35.66,23.19
			c-26.65,9.92-53.38,9.16-80.01,0c-23.47-8.07-43.12-21.89-59.38-40.55c-15.74-18.06-26.19-38.79-31-62.31
			C57.72,355.43,57.32,350.18,56.51,344.99z M189.95,440.5c1.49,0,2.99,0.05,4.48-0.01c1.28-0.05,2.55-0.22,3.82-0.35
			c17.22-1.68,32.34-8.11,44.68-20.38c26.66-26.52,53.2-53.17,79.82-79.72c1.43-1.43,1.51-2.3,0.03-3.77
			c-44.07-44-88.1-88.03-132.1-132.1c-1.45-1.46-2.33-1.44-3.77,0.01c-26.45,26.53-52.97,53-79.43,79.51
			c-5.98,5.99-10.82,12.82-14.25,20.58c-9.09,20.55-8.8,41.48-1.83,62.44c7.53,22.65,21.49,40.71,40.85,54.55
			C149.47,433.57,168.65,440.28,189.95,440.5z"/>
	</g>
</g>
</svg>
